<?xml version="1.0" encoding="UTF-8" standalone="no"?>
<!DOCTYPE svg  PUBLIC '-//W3C//DTD SVG 1.1//EN'  'http://www.w3.org/Graphics/SVG/1.1/DTD/svg11.dtd'>
<svg version="1.1" xmlns="http://www.w3.org/2000/svg">
<defs>
<font id="ClassicalGaramondBT-Roman" horiz-adv-x="1139">
<font-face unicode-range="U+0020-02DC" underline-position="-423" panose-1="2 2 6 2 5 5 6 2 4 3" underline-thickness="129" ascent="1638" font-weight="400" x-height="913" cap-height="1431" units-per-em="2048" font-family="T" bbox="-119 -483 2017 1972" descent="-410"/>
<missing-glyph/>
<glyph glyph-name="space" unicode=" " horiz-adv-x="569"/>
<glyph glyph-name="exclam" d="M362 387h-43l-75 643q-10 82 -15.5 145.5t-5.5 94.5q0 87 31.5 136.5t87.5 49.5q59 0 88 -53.5t29 -163.5q0 -81 -14 -196q0 -5 -1 -9zM213 102q0 54 37.5 90.5t91.5 36.5t90.5 -36.5t36.5 -90.5q0 -53 -36.5 -90t-90.5 -37t-91.5 37t-37.5 90z" unicode="!" horiz-adv-x="682"/>
<glyph glyph-name="quotedbl" d="M518 864h-31l-65 457q0 2 -1 6q-3 22 -3 33q0 49 22.5 75.5t63.5 26.5q40 0 62 -26t22 -74q0 -14 -0.5 -23t-1.5 -18zM190 864h-32l-64 457q-2 17 -3 26t-1 15q0 48 22 74t62 26q41 0 63.5 -26t22.5 -74q0 -9 -3 -34q-1 -5 -1 -7z" unicode='&quot;' horiz-adv-x="678"/>
<glyph glyph-name="numbersign" d="M700 868l-100 -286h289l102 286h-291zM778 1456h133l-168 -471h287l168 471h131l-166 -471h307l-40 -117h-310l-100 -286h332l-43 -115h-330l-166 -469h-133l166 469h-287l-166 -469h-131l166 469h-324l43 115h322l100 286h-348l43 117h348z" unicode="#" horiz-adv-x="1575"/>
<glyph glyph-name="dollar" d="M530 848v526q-98 -24 -149 -86.5t-51 -159.5q0 -99 51.5 -171.5t148.5 -108.5zM602 47q102 25 155.5 93.5t53.5 174.5q0 104 -50.5 174.5t-158.5 118.5v-561zM602 -18v-177h-72v172h-12q-85 0 -171.5 20.5t-176.5 62.5q-3 54 -13 125t-30 171l49 9q37 -160 124 -238 t230 -80v592q-178 68 -266 170.5t-88 243.5q0 159 92 259t262 128v139h72v-135h12q43 0 104 -8t181 -31q0 -42 2.5 -104t7.5 -158h-41q-17 112 -81 169.5t-185 69.5v-565q202 -79 296.5 -182t94.5 -244q0 -165 -106 -276.5t-285 -132.5z" unicode="$"/>
<glyph glyph-name="percent" d="M1432 872q-93 0 -143 -116.5t-50 -333.5q0 -193 44 -294t128 -101q94 0 143.5 111t49.5 325q0 201 -44 305t-128 104zM1092 420q0 217 99 359.5t245 142.5q139 0 228 -128t89 -331q0 -87 -24 -173t-68 -155q-52 -82 -113 -121t-139 -39q-137 0 -227 125t-90 320z M1331 1427h90l-927 -1452h-93zM420 1378q-93 0 -143 -116.5t-50 -333.5q0 -195 44.5 -294t131.5 -99q91 0 139 111t48 323q0 204 -43 306.5t-127 102.5zM78 926q0 216 100 358.5t246 142.5q139 0 228 -127.5t89 -330.5q0 -88 -24 -173.5t-68 -154.5q-52 -82 -112.5 -120 t-139.5 -38q-138 0 -228.5 124.5t-90.5 318.5z" unicode="%" horiz-adv-x="1839"/>
<glyph glyph-name="ampersand" d="M643 948q68 47 100.5 104t32.5 132q0 88 -44.5 138t-123.5 50q-69 0 -116.5 -49t-47.5 -121q0 -67 45.5 -125.5t153.5 -128.5zM999 338q-120 152 -242.5 276.5t-240.5 212.5q-117 -72 -173 -154.5t-56 -183.5q0 -144 106 -254t246 -110q101 0 188.5 51.5t171.5 161.5z M1030 283q-139 -170 -248.5 -239t-232.5 -69q-181 0 -298.5 117t-117.5 293q0 150 80.5 262.5t257.5 208.5q-88 72 -127 137t-39 140q0 124 92 208t228 84q124 0 204 -63.5t80 -161.5q0 -81 -56 -153t-165 -129q120 -92 226 -200t200 -237q126 151 205.5 280.5t79.5 172.5 q0 38 -27 54t-100 20v51q107 -3 160 -3.5t100 -0.5q54 0 114 0.5t160 3.5v-51q-114 -2 -179.5 -29t-131.5 -102q-13 -15 -125 -164.5t-221 -282.5q161 -220 249.5 -293.5t174.5 -73.5q63 0 118 32.5t103 97.5l33 -31q-88 -122 -171.5 -175t-185.5 -53q-112 0 -213 79.5 t-227 269.5z" unicode="&amp;" horiz-adv-x="1896"/>
<glyph glyph-name="quotesingle" d="M190 864h-32l-66 457q-1 8 -1.5 16t-0.5 23q0 50 21.5 76t62.5 26t63.5 -26t22.5 -74q0 -9 -3 -34q-1 -5 -1 -7z" unicode="&apos;" horiz-adv-x="348"/>
<glyph glyph-name="parenleft" d="M621 -332l-68 -65q-189 202 -286 435.5t-97 485.5q0 264 98 503.5t285 428.5l70 -61q-142 -213 -213.5 -433t-71.5 -444t72 -441t211 -409z" unicode="(" horiz-adv-x="682"/>
<glyph glyph-name="parenright" d="M76 -332q137 191 208.5 408t71.5 442q0 226 -71 445t-213 432l69 61q187 -189 285 -428.5t98 -503.5q0 -252 -97 -485.5t-286 -435.5z" unicode=")" horiz-adv-x="682"/>
<glyph glyph-name="asterisk" d="M494 1051l38 6q69 -82 99.5 -133t30.5 -84q0 -28 -21.5 -47t-52.5 -19q-54 0 -74 50.5t-20 226.5zM549 1096l6 39q74 30 127.5 45.5t83.5 15.5q36 0 58 -20.5t22 -55.5q0 -32 -22.5 -54t-55.5 -22q-26 0 -70.5 10t-148.5 42zM524 1161l-35 19v15q-4 57 -4 83q0 98 19 138 t63 40q35 0 56.5 -21.5t21.5 -56.5q0 -26 -27 -75t-94 -142zM453 1161l-29 -28q-136 34 -189 64.5t-53 72.5q0 30 24 51.5t58 21.5q30 0 67 -34t122 -148zM432 1087l21 -34q-62 -100 -106.5 -146.5t-80.5 -46.5q-28 0 -48.5 23t-20.5 55q0 41 38.5 69t196.5 80z" unicode="*" horiz-adv-x="1024"/>
<glyph glyph-name="plus" d="M795 1221h118v-551h539v-117h-539v-553h-118v553h-541v117h541v551z" unicode="+" horiz-adv-x="1706"/>
<glyph glyph-name="comma" d="M102 -385l-14 53q113 25 172 87.5t59 156.5q0 49 -17.5 67.5t-76.5 24.5q-64 8 -97.5 37.5t-33.5 79.5q0 51 40.5 86t101.5 35q92 0 149 -67.5t57 -176.5q0 -145 -88.5 -245t-251.5 -138z" unicode="," horiz-adv-x="569"/>
<glyph glyph-name="hyphen" d="M84 436l20 137h488l-19 -137h-489z" unicode="-" horiz-adv-x="682"/>
<glyph glyph-name="period" d="M129 111q0 56 39 94.5t96 38.5t95 -38.5t38 -94.5q0 -58 -38 -97t-95 -39t-96 39.5t-39 96.5z" unicode="." horiz-adv-x="569"/>
<glyph glyph-name="slash" d="M465 1456h90l-518 -1646h-90z" unicode="/" horiz-adv-x="569"/>
<glyph glyph-name="zero" d="M109 655q0 336 138 554t341 218q193 0 316.5 -195.5t123.5 -508.5q0 -136 -33 -268t-94 -238q-72 -126 -156 -184t-194 -58q-192 0 -317 191t-125 489zM582 1366q-134 0 -206.5 -181.5t-72.5 -518.5q0 -307 64 -466t186 -159q137 0 207.5 173.5t70.5 508.5 q0 314 -64 478.5t-185 164.5z" unicode="0"/>
<glyph glyph-name="one" d="M269 0l-1 55h58q121 0 154.5 26t33.5 124v1052q-80 -49 -149 -88t-134 -71l-24 53q124 66 243.5 138.5t235.5 152.5l12 -15v-1222q0 -100 27.5 -126t112.5 -26q3 0 32 1t54 1l-1 -55q-40 3 -98 4.5t-133 1.5q-200 0 -282.5 -1.5t-140.5 -4.5z" unicode="1"/>
<glyph glyph-name="two" d="M977 0h-920v43q327 282 488.5 519t161.5 435q0 141 -69 222t-187 81q-80 0 -147.5 -43.5t-137.5 -140.5l-41 35q77 137 184 205.5t242 68.5q150 0 246 -101t96 -259q0 -163 -114 -343t-494 -560h573q59 0 80.5 19t54.5 100l51 -15z" unicode="2"/>
<glyph glyph-name="three" d="M199 1182l-31 30q81 107 175.5 161t201.5 54q131 0 215 -77.5t84 -196.5q0 -103 -69 -195.5t-195 -158.5l2 -6q162 -11 249 -99.5t87 -242.5q0 -99 -49 -192.5t-138 -166.5q-68 -55 -159 -86t-187 -31q-124 0 -219.5 57t-95.5 122q0 25 21 41t54 16q26 0 49 -38 q3 -5 5 -8q48 -74 99.5 -101t135.5 -27q124 0 212.5 101t88.5 247q0 153 -89 235t-255 82q-24 0 -37.5 -0.5t-23.5 -0.5v47q165 28 256.5 114t91.5 213q0 107 -68.5 175.5t-175.5 68.5q-59 0 -115.5 -32.5t-119.5 -104.5z" unicode="3"/>
<glyph glyph-name="four" d="M653 592l9 641l-474 -641h465zM825 0h-172v446h-614v91l684 890h102v-835h195v-146h-195v-446z" unicode="4"/>
<glyph glyph-name="five" d="M248 887l194 528h516l-40 -158h-463l-80 -221q243 -103 361 -242t118 -321q0 -209 -148 -353.5t-366 -144.5q-119 0 -203 52.5t-84 119.5q0 23 19 37.5t49 14.5q20 0 33 -4.5t18 -12.5q43 -78 91 -108.5t122 -30.5q127 0 216 96t89 236q0 168 -104 288.5t-338 223.5z" unicode="5"/>
<glyph glyph-name="six" d="M551 662q-107 0 -177.5 -70t-70.5 -178q0 -160 75.5 -267.5t186.5 -107.5q108 0 178 88t70 227q0 138 -72.5 223t-189.5 85zM307 588q79 101 160.5 148.5t173.5 47.5q153 0 250.5 -100t97.5 -256q0 -84 -32 -163t-93 -146q-63 -68 -146.5 -106t-170.5 -38 q-189 0 -310.5 148t-121.5 381q0 153 68 308.5t190 281.5q133 136 292 223.5t353 130.5l20 -49q-309 -81 -499 -292t-232 -519z" unicode="6"/>
<glyph glyph-name="seven" d="M342 -25l-82 35l645 1247h-624q-57 0 -84 -26t-54 -103h-51q15 63 27 131t22 156h887q19 0 30 -7.5t11 -18.5t-13 -38q-5 -10 -7 -15z" unicode="7"/>
<glyph glyph-name="eight" d="M475 649q-93 -69 -139.5 -154.5t-46.5 -189.5q0 -121 65.5 -196.5t171.5 -75.5q100 0 165 70t65 178q0 102 -68.5 192t-212.5 176zM432 680q-142 97 -203 185.5t-61 197.5q0 157 113 260.5t286 103.5q152 0 252.5 -88.5t100.5 -220.5q0 -102 -72.5 -195t-210.5 -169 q147 -86 221 -186t74 -214q0 -157 -121 -267t-299 -110q-156 0 -262.5 94t-106.5 230q0 115 65.5 201.5t223.5 177.5zM588 780q94 73 138 149.5t44 168.5q0 128 -62.5 204t-166.5 76q-90 0 -149.5 -71.5t-59.5 -182.5q0 -95 59 -175t197 -169z" unicode="8"/>
<glyph glyph-name="nine" d="M297 1049q0 -138 72.5 -224t187.5 -86q103 0 173.5 67t70.5 167q0 185 -68 291t-186 106q-111 0 -180.5 -89.5t-69.5 -231.5zM84 -45l-12 49q304 64 495 276t224 521q-74 -93 -155.5 -141t-166.5 -48q-150 0 -246 103t-96 264q0 188 127 318t311 130q189 0 307.5 -139 t118.5 -362q0 -367 -247 -633t-660 -338z" unicode="9"/>
<glyph glyph-name="colon" d="M197 723q0 54 36.5 91.5t90.5 37.5q53 0 90 -37.5t37 -91.5t-37 -90.5t-90 -36.5q-54 0 -90.5 36.5t-36.5 90.5zM197 104q0 55 36.5 92t90.5 37q53 0 90 -37t37 -92q0 -53 -37 -90t-90 -37q-54 0 -90.5 37t-36.5 90z" unicode=":" horiz-adv-x="682"/>
<glyph glyph-name="semicolon" d="M190 723q0 55 39 94t95 39t95.5 -38.5t39.5 -94.5t-39.5 -94.5t-95.5 -38.5t-95 39t-39 94zM180 -385l-14 55q113 25 172 87.5t59 156.5q0 48 -17 65.5t-77 24.5q-63 8 -97 38.5t-34 80.5q0 51 39.5 85t99.5 34q93 0 151 -68t58 -176q0 -145 -88.5 -245t-251.5 -138z" unicode=";" horiz-adv-x="682"/>
<glyph glyph-name="less" d="M1442 1145v-127l-1000 -408l1000 -405v-129l-1178 483v103z" unicode="&lt;" horiz-adv-x="1706"/>
<glyph glyph-name="equal" d="M254 477h1198v-117h-1198v117zM254 860h1198v-117h-1198v117z" unicode="=" horiz-adv-x="1706"/>
<glyph glyph-name="greater" d="M264 1145l1178 -483v-103l-1178 -483v129l1000 405l-1000 408v127z" unicode="&gt;" horiz-adv-x="1706"/>
<glyph glyph-name="question" d="M229 102q0 54 38 91.5t93 37.5q53 0 89 -37.5t36 -91.5q0 -53 -36 -90t-89 -37q-55 0 -93 37t-38 90zM358 387h-63v375q163 6 252.5 74.5t89.5 185.5q0 88 -50 147.5t-138 77.5q-10 2 -20.5 3t-33.5 1h-59q-30 0 -43.5 2.5t-24.5 8.5q-24 10 -36.5 29t-12.5 44 q0 43 32.5 70t84.5 27q68 0 134.5 -39t125.5 -113q61 -76 98 -180t37 -197q0 -124 -59 -200.5t-179 -106.5q-18 -5 -49 -12q-86 -19 -86 -111v-86z" unicode="?" horiz-adv-x="901"/>
<glyph glyph-name="at" d="M1190 336q-62 -106 -139 -158.5t-170 -52.5q-125 0 -201 92t-76 244q0 108 49 216t138 193q65 64 144 100t155 36q87 0 143 -49.5t78 -145.5l53 180h143l-170 -610q0 -2 -1 -5q-17 -59 -17 -104q0 -47 25.5 -74.5t68.5 -27.5q34 0 79 17.5t85 48.5q122 90 187 231t65 315 q0 140 -50 252t-153 203q-90 79 -216 122.5t-267 43.5q-187 0 -341.5 -58.5t-275.5 -175.5q-130 -126 -197 -293.5t-67 -369.5q0 -175 57 -304.5t181 -234.5q114 -97 261 -146.5t320 -49.5q163 0 317.5 52t295.5 154l30 -36q-148 -110 -313 -166t-342 -56q-187 0 -342 46.5 t-274 138.5q-151 113 -229.5 274.5t-78.5 358.5q0 204 86 381t250 313q131 110 291 165.5t344 55.5q347 0 553.5 -187t206.5 -499q0 -157 -58 -297t-163 -236q-57 -52 -123.5 -80t-134.5 -28q-97 0 -149 52.5t-58 158.5zM1098 965q-54 0 -99 -31t-92 -100 q-72 -108 -114.5 -234t-42.5 -225q0 -93 40.5 -147t108.5 -54q66 0 126 44.5t116 133.5q57 94 91 202.5t34 197.5q0 93 -47.5 153t-120.5 60z" unicode="@" horiz-adv-x="2019"/>
<glyph glyph-name="A" d="M416 621h407l-217 602zM-22 0l-1 51h15q75 0 120.5 43.5t94.5 181.5l287 805q39 106 53 168t14 117v25q29 15 57.5 37.5t55.5 50.5h41l463 -1280q32 -86 71.5 -115t122.5 -33v-51q-56 3 -120.5 4.5t-137.5 1.5q-52 0 -120.5 -1.5t-151.5 -4.5v51q85 4 114 19.5t29 52.5 q0 15 -5 37t-19 67l-103 310h-471l-80 -240q-15 -45 -24 -83.5t-9 -59.5q0 -56 42.5 -79.5t146.5 -23.5l-1 -51q-91 3 -155.5 4.5t-101.5 1.5q-51 0 -108 -1.5t-119 -4.5z" unicode="A" horiz-adv-x="1366"/>
<glyph glyph-name="B" d="M444 324v-58q0 -129 37 -163.5t135 -34.5q154 0 245 84t91 227q0 181 -104.5 269.5t-321.5 88.5q-33 0 -50 -0.5t-31 -1.5zM445 799q10 -1 22.5 -1.5t36.5 -0.5q159 0 242 76.5t83 222.5q0 142 -75 208t-238 66q-29 0 -44 -0.5t-27 -1.5v-569zM66 0v51q111 0 145.5 28.5 t34.5 135.5v1026q0 88 -32 111t-148 30v52q30 -4 62.5 -5.5t88.5 -1.5q62 0 164.5 3.5t142.5 3.5q248 0 379 -84.5t131 -243.5q0 -117 -85.5 -205t-237.5 -125q208 -15 329 -118.5t121 -266.5q0 -189 -148 -290t-427 -101q-41 0 -161.5 2t-201.5 2q-31 0 -120 -3 q-25 -1 -37 -1z" unicode="B" horiz-adv-x="1251"/>
<glyph glyph-name="C" d="M1382 383l-45 -297q-112 -55 -228 -82t-239 -27q-162 0 -296.5 49t-237.5 146q-105 98 -165 241.5t-60 297.5q0 157 60.5 295.5t178.5 248.5q106 100 241 149.5t300 49.5q112 0 227.5 -25.5t236.5 -76.5q8 -61 13 -132t8 -157h-41q-40 170 -143 249t-285 79 q-101 0 -189.5 -30t-158.5 -87q-112 -93 -171.5 -223.5t-59.5 -284.5q0 -103 23.5 -199t70.5 -184q84 -160 212.5 -245t285.5 -85q165 0 274.5 89t142.5 251z" unicode="C" horiz-adv-x="1479"/>
<glyph glyph-name="D" d="M80 51q108 0 142 30t34 134v1026q0 86 -31.5 109.5t-144.5 29.5v52q38 -5 79 -7t91 -2q51 0 152.5 2t152.5 2q237 0 388.5 -41.5t266.5 -134.5q125 -101 190.5 -236.5t65.5 -291.5q0 -338 -232 -530.5t-644 -192.5q-44 0 -120 3t-108 3q-61 0 -132 -1.5t-150 -4.5v51z M451 336q0 -168 43 -215t163 -47q273 0 431.5 167t158.5 455q0 313 -185 490.5t-511 177.5q-31 0 -95 -4h-5v-1024z" unicode="D" horiz-adv-x="1583"/>
<glyph glyph-name="E" d="M70 0v51q108 0 143 30.5t35 133.5v1026q0 85 -32 109t-146 30v52q40 -1 125 -3q181 -4 274 -4q158 0 355.5 3.5t238.5 3.5v-316l-43 1q-7 135 -85.5 190t-272.5 55h-216v-574h265q98 0 136 38.5t40 133.5l55 1q-6 -58 -9 -104.5t-3 -84.5q0 -79 11 -256q1 -13 1 -18h-51 v16q0 109 -45 146.5t-211 37.5h-189v-428q0 -128 48 -166t239 -38q202 0 284.5 53t137.5 200l49 -14q-25 -62 -47.5 -142.5t-40.5 -170.5q-238 6 -442 9t-328 3q-49 0 -105.5 -0.5t-170.5 -3.5z" unicode="E" horiz-adv-x="1251"/>
<glyph glyph-name="F" d="M446 322v-58q0 -144 33.5 -178.5t134.5 -34.5h7h2l-1 -51q-55 3 -119 4.5t-134 1.5q-77 0 -151.5 -1.5t-147.5 -4.5v51q109 0 143.5 30t34.5 134v1026q0 84 -32.5 109t-145.5 30v51q89 -3 201 -4.5t247 -1.5q107 0 296.5 3t248.5 4v-316h-43q-8 140 -89 193t-333 53h-152 v-574h263q98 0 137 39t41 135l55 1q-6 -54 -9 -101.5t-3 -89.5q0 -48 2 -104t10 -170h-51v24q0 95 -40 134.5t-136 39.5h-269v-374z" unicode="F" horiz-adv-x="1176"/>
<glyph glyph-name="G" d="M1178 426q0 84 -31 107.5t-146 29.5l1 51q64 -3 133.5 -4.5t142.5 -1.5q112 0 168.5 1.5t105.5 4.5v-51q-108 -4 -143 -37.5t-35 -179.5v-184l33 -35v-39q-153 -57 -289.5 -85t-259.5 -28q-344 0 -549 200.5t-205 535.5q0 156 53.5 288.5t157.5 237.5q107 107 250 163 t309 56q106 0 229.5 -26.5t274.5 -81.5l33 -283l-47 -2q-31 157 -152 243.5t-311 86.5q-255 0 -415 -183.5t-160 -480.5q0 -123 36 -242.5t99 -203.5q87 -119 199 -178.5t245 -59.5q80 0 149.5 19t123.5 55v307z" unicode="G" horiz-adv-x="1593"/>
<glyph glyph-name="H" d="M82 0v51q108 0 142 30t34 134v1026q0 86 -31.5 109.5t-144.5 29.5v51q47 -3 103.5 -4.5t172.5 -1.5q82 0 150.5 1.5t124.5 4.5v-51q-109 -4 -143.5 -37.5t-34.5 -179.5v-377h819v455q0 92 -24.5 111t-149.5 29v50q59 -2 128 -4t144 -2q31 0 98.5 1.5t176.5 4.5l-1 -51 q-105 -5 -139 -35t-34 -161v-21v-946q0 -102 35 -133t138 -33v-51q-57 3 -120.5 4.5t-132.5 1.5q-80 0 -153 -1.5t-140 -4.5v51h12q97 0 129.5 32.5t32.5 131.5v477h-819v-397q0 -169 33 -205.5t137 -36.5h8l-1 -53q-55 3 -118 4.5t-133 1.5q-78 0 -153 -1.5t-146 -4.5z" unicode="H" horiz-adv-x="1731"/>
<glyph glyph-name="I" d="M70 0v51q107 0 141.5 30t34.5 134v1026q0 86 -31.5 109.5t-144.5 29.5v51q63 -3 132 -4.5t144 -1.5q113 0 169 1.5t106 4.5v-51q-109 -4 -144 -37.5t-35 -179.5v-868q0 -170 33.5 -207t136.5 -37h4h5l-1 -51q-56 3 -119 4.5t-132 1.5q-78 0 -153 -1.5t-146 -4.5z" unicode="I" horiz-adv-x="692"/>
<glyph glyph-name="J" d="M346 1241q0 87 -34 111t-158 28v51q106 -3 188.5 -4.5t140.5 -1.5q63 0 126 1.5t126 4.5v-50q-120 -4 -156 -36.5t-36 -181.5v-977q0 -149 -12 -226.5t-39 -141.5q-48 -116 -146.5 -183t-220.5 -67q-87 0 -145 44t-58 107q0 35 22.5 58.5t55.5 23.5q31 0 46.5 -10.5 t31.5 -56.5q19 -54 40.5 -72t61.5 -18q92 0 129 79.5t37 307.5v1210z" unicode="J" horiz-adv-x="797"/>
<glyph glyph-name="K" d="M457 217q0 -102 35 -132.5t143 -33.5l-1 -51q-55 3 -119 4.5t-134 1.5q-77 0 -151 -1.5t-146 -4.5v51q108 0 142 30t34 134v1026q0 86 -31.5 109.5t-144.5 29.5v51q82 -3 162 -4.5t157 -1.5q55 0 114 2l118 4v-51q-109 -4 -143.5 -37.5t-34.5 -179.5v-946zM459 713 l485 507l5 6q67 70 67 101q0 25 -24.5 36.5t-92.5 17.5v51q32 -5 67.5 -7t100.5 -2h57h64q68 0 103 2t67 7v-52q-84 -4 -155.5 -41t-151.5 -118l-410 -424l518 -574q83 -91 146 -130t128 -42l1 -51q-5 0 -13 1q-76 3 -110 3q-31 0 -131 -2q-48 -1 -76 -2z" unicode="K" horiz-adv-x="1446"/>
<glyph glyph-name="L" d="M56 0l-1 51h21q101 0 134.5 31.5t33.5 179.5v10v969q0 85 -32 109t-146 30v51q83 -3 163.5 -4.5t157.5 -1.5q65 0 124.5 2t106.5 5v-52q-108 -4 -143 -37.5t-35 -179.5v-866q0 -133 51.5 -177t202.5 -44q241 0 322 52.5t121 197.5l47 -11l-76 -321q-197 7 -366 10.5 t-279 3.5q-83 0 -174.5 -1.5t-232.5 -6.5z" unicode="L" horiz-adv-x="1214"/>
<glyph glyph-name="M" d="M33 0v55q82 5 131 27.5t72 64.5q34 68 43 300q1 31 2 47l30 645v37q0 115 -39 156t-155 48v52q28 -3 63.5 -4t112.5 -1q82 0 115.5 1t56.5 4l551 -1143l545 1143q21 -3 48.5 -4t94.5 -1q58 0 108 1.5t89 3.5l-1 -52q-103 -1 -139.5 -29.5t-36.5 -129.5v-37l15 -793v-5 q5 -330 211 -331h14v-55q-52 3 -114.5 4.5t-192.5 1.5q-73 0 -154 -1.5t-167 -4.5l-1 55h23q109 0 148.5 36.5t39.5 137.5v90l-12 863q-248 -493 -383 -783t-176 -417h-43l-549 1155l-18 -660q-1 -16 -2 -44q-3 -45 -3 -58v-111q0 -120 39 -164.5t140 -44.5q2 0 6 -1t6 -1 q3 0 5 0.5t3 1.5v-55q-8 0 -24 1q-171 7 -244 7q-72 0 -135.5 -2t-122.5 -6z" unicode="M" horiz-adv-x="2009"/>
<glyph glyph-name="N" d="M47 0v53h6q117 0 158 51t41 287v764q0 118 -52 167t-185 58l-1 51q44 -3 85.5 -4.5t88.5 -1.5q59 0 98 1.5t79 4.5l997 -1105v716q0 209 -45 273.5t-170 64.5h-14h-7v52q32 0 115.5 -2.5t134.5 -2.5q55 0 144.5 2.5t124.5 2.5l-1 -52q-117 -5 -155.5 -53.5t-38.5 -263.5 v-1083h-45l-1063 1181v-772q0 -219 50 -276.5t200 -59.5v-53q-76 4 -149.5 6t-141.5 2q-63 0 -126 -2t-128 -6z" unicode="N" horiz-adv-x="1669"/>
<glyph glyph-name="O" d="M330 758q0 -133 38 -257.5t111 -228.5q81 -116 176.5 -170.5t218.5 -54.5q205 0 339.5 172.5t134.5 437.5q0 114 -25.5 221t-75.5 203q-74 144 -191.5 223.5t-254.5 79.5q-205 0 -338 -175t-133 -451zM846 -25q-147 0 -274 50t-230 149q-112 106 -171.5 247t-59.5 298 q0 149 53.5 283.5t154.5 238.5q102 106 230 160.5t276 54.5q155 0 279.5 -49.5t232.5 -153.5q114 -109 173 -245t59 -291q0 -121 -36.5 -233.5t-107.5 -213.5q-105 -147 -250.5 -221t-328.5 -74z" unicode="O" horiz-adv-x="1677"/>
<glyph glyph-name="P" d="M70 0v53q109 0 143.5 30t34.5 132v1026q0 85 -32 109t-146 30v51q65 -3 118.5 -4.5t96.5 -1.5q47 0 136 3.5t130 3.5q244 0 381 -104.5t137 -287.5q0 -185 -128.5 -300t-338.5 -115q-12 0 -26.5 0.5t-44.5 3.5l2 59q7 -1 15.5 -1.5t24.5 -0.5q138 0 212.5 86t74.5 244 q0 168 -91.5 259t-260.5 91q-25 0 -38.5 -0.5t-24.5 -1.5l-1 -1069q0 -169 33.5 -205.5t136.5 -36.5h9l-1 -53q-55 3 -119 4.5t-134 1.5q-78 0 -153 -1.5t-146 -4.5z" unicode="P"/>
<glyph glyph-name="Q" d="M1601 -289l29 -30q-36 -58 -91 -87.5t-124 -29.5q-68 0 -139 39t-223 180q-7 6 -18 16q-185 169 -255 185q-299 35 -483 238t-184 495q0 151 53 286t153 240q101 106 229 159.5t277 53.5q156 0 279 -48.5t229 -152.5q117 -110 173.5 -247.5t56.5 -311.5 q0 -135 -51 -256.5t-154 -234.5q-70 -77 -144.5 -123.5t-158.5 -67.5q89 -58 223 -166q183 -147 262 -147q17 0 32 2.5t29 7.5zM330 762q0 -133 38.5 -257t110.5 -226q82 -117 177 -171.5t216 -54.5q205 0 338 171.5t133 437.5q0 112 -25 218.5t-75 202.5 q-74 144 -190.5 222.5t-253.5 78.5q-205 0 -337 -173.5t-132 -448.5z" unicode="Q" horiz-adv-x="1677"/>
<glyph glyph-name="R" d="M82 0v51q108 0 142 30t34 134v1026q0 86 -31.5 109.5t-144.5 29.5v52q4 -1 12 -1q98 -4 146 -4q50 0 149 3.5t148 3.5q290 0 436.5 -90.5t146.5 -268.5q0 -121 -73 -213t-211 -145q253 -403 373 -534.5t212 -131.5q1 0 2 1t2 1q2 0 2 -2v-49q-28 2 -58.5 3t-88.5 1 q-68 0 -105.5 -1t-70.5 -3q-75 74 -189.5 242t-269.5 434h-55q-41 0 -74.5 1.5t-60.5 4.5v-389q0 -170 33 -207t137 -37h4h4l-1 -51q-55 3 -118 4.5t-133 1.5q-78 0 -153 -1.5t-146 -4.5zM457 760q23 -6 46.5 -9t47.5 -3q171 0 269 82.5t98 226.5q0 154 -91.5 232.5 t-271.5 78.5q-24 0 -48 -1.5t-50 -4.5v-602z" unicode="R" horiz-adv-x="1421"/>
<glyph glyph-name="S" d="M111 49l-41 303h49q40 -142 122 -220.5t189 -78.5q124 0 201.5 75t77.5 196q0 155 -254 302q-32 19 -49 29q-172 102 -233.5 189.5t-61.5 214.5q0 181 118 289t316 108q46 0 107 -7t141 -22l30 -258h-47q-17 102 -85.5 161t-170.5 59q-104 0 -172.5 -67t-68.5 -167 q0 -105 53.5 -177t212.5 -157q14 -7 43 -22q136 -71 196 -131q53 -53 80 -120.5t27 -146.5q0 -187 -132.5 -306.5t-342.5 -119.5q-86 0 -163 19t-142 55z" unicode="S" horiz-adv-x="1024"/>
<glyph glyph-name="T" d="M375 0v51h26q103 0 136.5 30.5t33.5 133.5v1133h-211q-156 0 -210.5 -41t-69.5 -152h-51l22 330h43q18 -32 55.5 -45t149.5 -13h700q142 0 205 14t66 44h43l-17 -316h-51v15q0 95 -41.5 128.5t-212.5 35.5h-223v-1039q0 -182 33 -220t135 -38h16h11l-1 -51 q-55 3 -119 4.5t-188 1.5q-45 0 -115.5 -1.5t-164.5 -4.5z" unicode="T" horiz-adv-x="1366"/>
<glyph glyph-name="U" d="M37 1376v51q53 0 141 -2t123 -2q45 0 99.5 1t162.5 3v-47h-6q-93 0 -124.5 -39t-31.5 -213v-28v-459q0 -139 13 -226t41 -151q43 -97 134 -152t212 -55q105 0 193.5 51.5t125.5 133.5q22 46 31.5 104.5t9.5 177.5v576q0 190 -36 234t-156 47v46q38 0 117 -1t120 -1 q40 0 114 1t107 1v-47q-92 -5 -124.5 -54t-32.5 -218v-573q0 -288 -131 -423t-410 -135q-274 0 -398 137.5t-124 440.5v588q0 163 -33.5 198t-136.5 35z" unicode="U" horiz-adv-x="1442"/>
<glyph glyph-name="V" d="M774 -25h-76l-454 1162q-1 2 -3 7q-90 230 -241 236v51q57 -3 122 -4.5t195 -1.5q85 0 133 1.5t93 4.5v-50q-81 -6 -110.5 -19.5t-29.5 -42.5q0 -11 6 -32t19 -56l369 -967l307 797q28 73 44.5 135t16.5 88q0 49 -32 69.5t-125 26.5v52q22 -3 69.5 -4t198.5 -1q64 0 98 1 t64 4v-52q-109 0 -198 -230q-14 -36 -22 -55z" unicode="V" horiz-adv-x="1442"/>
<glyph glyph-name="W" d="M780 -25h-63l-504 1235q-39 97 -83.5 128t-131.5 37v52q39 -3 86.5 -4.5t103.5 -1.5q83 0 166 1.5t164 4.5v-52q-66 -4 -95.5 -17t-29.5 -39q0 -21 27 -88q9 -24 14 -37l383 -963l203 453l-238 555q-38 87 -73.5 111t-108.5 24h-20v53q34 0 95 -1q119 -3 152 -3 q50 0 187 3q40 1 61 1v-53q-61 -5 -84.5 -17.5t-23.5 -37.5q0 -16 18 -61q2 -6 4 -11l135 -327l142 313q8 20 13 40.5t5 37.5q0 33 -33 48t-104 15v53h19q124 -4 173 -4q68 0 209 4h6v-53q-64 0 -107.5 -36t-92.5 -140l-183 -389l238 -551l328 883q21 57 33 106t12 74 q0 24 -41 38t-115 16v52q38 0 104 -2t93 -2q20 0 84.5 2t109.5 2v-53q-94 -4 -151 -154l-4 -11l-467 -1234h-64l-262 607z" unicode="W" horiz-adv-x="2048"/>
<glyph glyph-name="X" d="M51 1v52q86 6 144 39t127 121l372 485l-418 562q-28 37 -51.5 58t-52.5 34q-20 9 -47 16t-63 12v49q44 -5 105 -7.5t155 -2.5q102 0 173.5 2.5t129.5 7.5l-1 -49q-63 -1 -100 -16t-37 -39q0 -17 17.5 -47.5t56.5 -83.5l254 -342l219 281q48 62 73.5 109.5t25.5 74.5 q0 29 -20 41.5t-109 21.5v50q45 -5 97.5 -7t115.5 -2q59 0 127.5 2t144.5 7v-50q-96 -4 -165 -45.5t-159 -160.5l-297 -390l369 -499q106 -143 162 -187.5t114 -44.5h11h4l-1 -53q-52 3 -107 4.5t-109 1.5q-75 0 -151 -1.5t-154 -4.5v53h24q49 0 67.5 9.5t18.5 33.5 q0 14 -12 36.5t-39 57.5l-320 431l-284 -383q-39 -52 -55.5 -82t-16.5 -47q0 -30 31 -43t102 -13h21v-53q-56 4 -122.5 6t-150.5 2q-130 0 -168 -2t-51 -5z" unicode="X" horiz-adv-x="1593"/>
<glyph glyph-name="Y" d="M342 1v50h23q101 0 134 26.5t33 145.5v27v448l-391 543q-59 81 -107 110t-114 29h-6v49q48 -3 107.5 -4.5t130.5 -1.5q76 0 151 1.5t145 4.5l1 -49q-63 0 -91 -12t-28 -39q0 -15 9.5 -34t41.5 -62l305 -424l285 387q33 47 46 73t13 46q0 37 -30 51t-119 14v50 q27 0 95.5 -1.5t110.5 -1.5q95 0 132.5 0.5t64.5 1.5v-49q-85 -10 -210 -182l-3 -4l-340 -465v-407q0 -193 33 -232t135 -39h16h11l-1 -51q-69 3 -138 4.5t-136 1.5q-63 0 -140 -1.5t-169 -3.5z" unicode="Y" horiz-adv-x="1247"/>
<glyph glyph-name="Z" d="M49 0l1012 1346h-574q-174 0 -235.5 -47.5t-97.5 -180.5h-48l60 336h53q5 -16 18 -22t48 -7q10 0 36.5 1t43.5 1h989l-1004 -1345h565q221 0 305 56t144 214l45 -12l-92 -340h-1268z" unicode="Z" horiz-adv-x="1442"/>
<glyph glyph-name="bracketleft" d="M211 1432h430v-62q-25 1 -47.5 1.5t-44.5 0.5q-127 0 -155.5 -22t-28.5 -140v-1364q0 -91 7 -115t26 -30q23 -7 67 -9.5t176 -2.5v-64h-430v1807z" unicode="[" horiz-adv-x="682"/>
<glyph glyph-name="backslash" d="M14 1456h90l519 -1646h-91z" unicode="\" horiz-adv-x="569"/>
<glyph glyph-name="bracketright" d="M477 1432v-1807h-430v64q132 0 176 2.5t68 9.5q17 5 24 26.5t7 90.5v28v1364q0 119 -29 140.5t-154 21.5q-21 0 -43.5 -0.5t-48.5 -1.5v62h430z" unicode="]" horiz-adv-x="682"/>
<glyph glyph-name="asciicircum" d="M934 1462h178l520 -565h-92l-518 436l-520 -436h-90z" unicode="^" horiz-adv-x="2048"/>
<glyph glyph-name="underscore" d="M0 -365h1024v-118h-1024v118z" unicode="_" horiz-adv-x="1024"/>
<glyph glyph-name="grave" d="M688 1053h-74l-301 182q-49 31 -66.5 52.5t-17.5 47.5q0 32 22.5 55t53.5 23q24 0 52 -16t55 -45z" unicode="`" horiz-adv-x="1024"/>
<glyph glyph-name="a" d="M602 203v258q-228 -71 -297 -119t-69 -115q0 -57 45.5 -100t107.5 -43q54 0 111 31.5t102 87.5zM608 129q-96 -76 -176.5 -112.5t-148.5 -36.5q-91 0 -149 55t-58 141q0 98 95.5 165t432.5 173v141q0 92 -47.5 136.5t-146.5 44.5q-70 0 -107.5 -35.5t-48.5 -112.5 q-5 -37 -31.5 -56.5t-72.5 -19.5q-23 0 -32 8.5t-9 28.5q0 50 29 91t100 85q88 56 157.5 84.5t116.5 28.5q134 0 195 -58t61 -186v-475q0 -74 17.5 -95.5t64.5 -21.5q20 0 35.5 6.5t27.5 18.5l25 -27q-52 -56 -106.5 -88t-96.5 -32q-56 0 -90.5 40.5t-36.5 108.5z" unicode="a" horiz-adv-x="958"/>
<glyph glyph-name="b" d="M311 733v-368q0 -96 5.5 -134.5t17.5 -64.5q28 -62 81.5 -98.5t114.5 -36.5q124 0 207.5 109.5t83.5 279.5t-91 286.5t-218 116.5q-48 0 -97.5 -22t-103.5 -68zM313 801q108 82 176 111.5t138 29.5q151 0 255.5 -124.5t104.5 -307.5q0 -116 -44.5 -220.5t-127.5 -185.5 q-69 -66 -147.5 -96.5t-182.5 -30.5q-124 0 -239 43q-18 6 -23 7q-13 0 -27 -6t-30 -19h-33q9 85 13 178.5t4 220.5v840q0 98 -24.5 127.5t-96.5 52.5v29q65 20 123.5 45t111.5 55h49v-749z" unicode="b" horiz-adv-x="1079"/>
<glyph glyph-name="c" d="M831 227l33 -34q-87 -109 -181.5 -162.5t-201.5 -53.5q-175 0 -294 128.5t-119 320.5q0 98 35.5 186.5t103.5 161.5q76 84 169 124t212 40q120 0 188 -36.5t68 -100.5q0 -37 -21.5 -61.5t-52.5 -24.5q-35 0 -71 43q-11 14 -17 20q-43 47 -87.5 68.5t-94.5 21.5 q-114 0 -191.5 -97.5t-77.5 -244.5q0 -171 100.5 -287t246.5 -116q63 0 125.5 25.5t127.5 78.5z" unicode="c" horiz-adv-x="909"/>
<glyph glyph-name="d" d="M786 631q0 119 -54 177t-165 58q-134 0 -220.5 -102t-86.5 -262q0 -174 92.5 -290t229.5 -116q109 0 156.5 51.5t47.5 169.5v314zM782 1231v10q0 98 -24.5 127.5t-95.5 52.5v29q65 20 123.5 45t111.5 55h53v-1351q0 -70 14 -85.5t56 -15.5q14 0 52 3q12 1 18 1v-45 q-131 -25 -252 -69q-24 -8 -27 -8q-10 0 -15 10t-5 30v13l6 96h-11q-79 -78 -156 -113.5t-163 -35.5q-164 0 -271.5 122t-107.5 310q0 222 152 371t383 149q38 0 78 -7.5t81 -21.5v328z" unicode="d"/>
<glyph glyph-name="e" d="M258 643h340q51 0 63.5 11t12.5 44q0 79 -50 129t-128 50q-89 0 -153 -63t-85 -171zM827 244l31 -33q-90 -122 -186.5 -179t-212.5 -57q-164 0 -270.5 131t-106.5 332q0 208 127 354t301 146q146 0 244 -90.5t98 -216.5q0 -33 -14 -44.5t-64 -11.5h-82h-442q0 -1 -1 -6 q-3 -46 -3 -69q0 -174 84 -284t213 -110q68 0 138.5 34.5t145.5 103.5z" unicode="e" horiz-adv-x="948"/>
<glyph glyph-name="f" d="M391 154q0 -67 23.5 -85t136.5 -18h33l-1 -51q-55 3 -121 4.5t-140 1.5q-82 0 -145 -1.5t-107 -4.5v51q106 0 131.5 16.5t25.5 94.5v39v600h-141v35l141 86q4 145 36 255t95 191q65 83 143.5 132.5t141.5 49.5q42 0 62 -19t20 -58q0 -46 -14.5 -69.5t-42.5 -23.5 q-13 0 -54.5 16.5t-70.5 16.5q-84 0 -118 -63t-34 -234v-215h258v-100h-258v-647z" unicode="f" horiz-adv-x="684"/>
<glyph glyph-name="g" d="M199 -186q0 -86 76.5 -143.5t193.5 -57.5q155 0 256.5 67.5t101.5 165.5q0 84 -66.5 122t-213.5 38q-190 0 -269 -45t-79 -147zM295 12q-84 22 -128 69.5t-44 117.5q0 15 2 30.5t6 30.5l160 96q-95 46 -143 114.5t-48 158.5q0 135 105.5 222t271.5 87q65 0 183 -29.5 t182 -29.5q21 0 86 2q31 1 49 2v-95h-55q-30 0 -62 1t-77 3q21 -37 31.5 -75.5t10.5 -79.5q0 -137 -105.5 -223t-275.5 -86q-25 0 -51.5 3t-54.5 9q-28 -24 -42.5 -49.5t-14.5 -52.5q0 -54 41 -75.5t151 -21.5q10 0 42 1t54 1h72q113 0 162.5 -8t81.5 -26q41 -25 64.5 -67.5 t23.5 -94.5q0 -57 -25 -117t-69 -109q-81 -89 -198.5 -138.5t-250.5 -49.5q-169 0 -272 70.5t-103 183.5q0 75 66 138t174 87zM276 651q0 -128 54 -200t149 -72q79 0 131 65t52 164q0 118 -57.5 197.5t-141.5 79.5q-89 0 -138 -61.5t-49 -172.5z" unicode="g" horiz-adv-x="1012"/>
<glyph glyph-name="h" d="M60 0v51q90 2 114.5 18.5t24.5 90.5v41v1046q0 91 -25 120.5t-96 53.5v29q66 20 124.5 45t110.5 55h47v-764q126 80 210 115t149 35q118 0 175.5 -77t57.5 -236v-461q0 -78 20.5 -93t106.5 -18v-51q-30 1 -101.5 3.5t-107.5 2.5q-40 0 -115.5 -2.5t-103.5 -3.5l1 51 q92 2 113 16.5t21 88.5v16v420q0 121 -41.5 173t-136.5 52q-60 0 -121 -22.5t-125 -67.5v-573q0 -66 21.5 -83.5t117.5 -19.5v-51q-75 3 -140.5 4.5t-118.5 1.5q-52 0 -97.5 -1.5t-84.5 -4.5z" unicode="h"/>
<glyph glyph-name="i" d="M60 0v51q90 2 114.5 18.5t24.5 90.5v41v461q0 75 -26 105.5t-95 51.5v25q66 20 124.5 45t110.5 55h49v-790q0 -66 21 -83.5t118 -21.5v-49q-75 3 -140.5 4.5t-118.5 1.5q-52 0 -97.5 -1.5t-84.5 -4.5zM176 1356q0 43 28.5 71.5t71.5 28.5t72 -29t29 -71q0 -43 -29.5 -73 t-71.5 -30t-71 29.5t-29 73.5z" unicode="i" horiz-adv-x="569"/>
<glyph glyph-name="j" d="M156 1356q0 42 29.5 71t72.5 29q42 0 71 -29t29 -71q0 -43 -29 -73t-71 -30q-43 0 -72.5 30t-29.5 73zM344 -18q0 -210 -69.5 -299.5t-256.5 -147.5l-18 53q103 35 141.5 98.5t38.5 239.5v719q0 90 -25 120.5t-96 53.5v25q66 20 124.5 45t111.5 55h49v-962z" unicode="j" horiz-adv-x="510"/>
<glyph glyph-name="k" d="M50 0l-1 51q91 2 115 18.5t24 90.5v41v1040q0 98 -24 127.5t-96 52.5v29q65 20 123.5 45t111.5 55h49v-1046q3 0 8.5 -1t8.5 -1q47 0 113 64l16 16l181 173l2 2q40 36 40 62q0 23 -23 33.5t-77 11.5v49h17q125 -4 181 -4q51 0 176 4h29v-49q-61 0 -113 -22.5t-106 -73.5 l-262 -240l295 -338q70 -81 118 -110t105 -29v-51q-15 1 -44 2q-61 4 -93 4q-18 0 -56 -1.5t-95 -4.5l-378 453h-43v-299q0 -66 21 -83.5t118 -19.5v-51q-75 3 -140.5 4.5t-119.5 1.5q-51 0 -96.5 -1.5t-84.5 -4.5z" unicode="k" horiz-adv-x="1087"/>
<glyph glyph-name="l" d="M60 0v51q90 2 114.5 18.5t24.5 90.5v41v1067q0 75 -26 105.5t-95 51.5v25q66 20 124.5 45t110.5 55h49v-1396q0 -66 21.5 -83.5t117.5 -19.5v-51q-75 3 -140.5 4.5t-118.5 1.5q-52 0 -97.5 -1.5t-84.5 -4.5z" unicode="l" horiz-adv-x="569"/>
<glyph glyph-name="m" d="M60 0v51q90 2 114.5 18.5t24.5 90.5v41v436q0 98 -25 128.5t-96 53.5v25q66 20 124.5 45t110.5 55h47v-158q119 75 204 112.5t136 37.5q74 0 129.5 -38t96.5 -116q131 80 215.5 117t134.5 37q127 0 180 -80.5t53 -290.5v-395q0 -83 22.5 -100t104.5 -19v-51 q-30 1 -101.5 3.5t-107.5 2.5q-40 0 -114.5 -2.5t-102.5 -3.5v51q88 0 110.5 16t22.5 105v438q0 105 -40.5 156t-124.5 51q-57 0 -120.5 -25t-127.5 -73v-557q0 -77 20 -92.5t111 -18.5v-51q-31 1 -102 3.5t-107 2.5q-41 0 -116.5 -2.5t-102.5 -3.5v51q91 2 113 17t22 96v8 v442q0 100 -42.5 151.5t-125.5 51.5q-53 0 -113 -23t-125 -67v-573q0 -66 21 -83.5t118 -21.5v-49q-75 3 -140.5 4.5t-118.5 1.5q-52 0 -97.5 -1.5t-84.5 -4.5z" unicode="m" horiz-adv-x="1692"/>
<glyph glyph-name="n" d="M60 0v51q90 2 114.5 18.5t24.5 90.5v41v420q0 98 -25 128t-96 54v41q66 20 124.5 45t110.5 55h47v-158q126 80 210 115t149 35q126 0 179.5 -81t53.5 -284v-409q0 -79 21.5 -93.5t103.5 -17.5v-51q-29 1 -99 3.5t-108 2.5q-40 0 -115.5 -2.5t-103.5 -3.5v51q89 0 112 16 t23 105v383q0 156 -39 209t-139 53q-60 0 -121 -22.5t-125 -67.5v-573q0 -66 21 -83.5t118 -21.5v-49q-75 3 -140.5 4.5t-118.5 1.5q-52 0 -97.5 -1.5t-84.5 -4.5z" unicode="n"/>
<glyph glyph-name="o" d="M276 483q0 -198 84.5 -322t217.5 -124q124 0 200 112.5t76 301.5q0 198 -83 316t-220 118q-119 0 -197 -112t-78 -290zM90 453q0 208 136.5 346.5t342.5 138.5t342 -132.5t136 -330.5q0 -207 -141.5 -352.5t-346.5 -145.5q-196 0 -332.5 138.5t-136.5 337.5z" unicode="o"/>
<glyph glyph-name="p" d="M350 188q52 -70 108.5 -105.5t116.5 -35.5q123 0 205 105.5t82 267.5q0 172 -87 279.5t-224 107.5q-50 0 -100 -18.5t-101 -55.5v-545zM47 -464v52q94 2 117.5 18.5t23.5 94.5v35v885q0 98 -24.5 128t-95.5 54v41q65 20 123.5 45t111.5 55h45v-147q97 75 175.5 110 t150.5 35q153 0 256.5 -123.5t103.5 -308.5q0 -92 -31 -177t-94 -161q-78 -97 -174 -144.5t-211 -47.5q-45 0 -88.5 9.5t-85.5 28.5v-327q0 -67 22.5 -85t119.5 -18l-1 -53q-75 3 -140.5 4.5t-119.5 1.5q-52 0 -98.5 -1.5t-85.5 -3.5z" unicode="p"/>
<glyph glyph-name="q" d="M778 143v531q0 84 -63.5 139t-155.5 55q-132 0 -220.5 -108.5t-88.5 -274.5q0 -163 102.5 -281t241.5 -118q41 0 87 14.5t97 42.5zM946 -301v-8q0 -73 21.5 -87t103.5 -16v-50q-70 2 -144 3.5t-151 1.5q-27 0 -71.5 -1.5t-104.5 -3.5v50h37q93 0 117 15t24 96v8v381 q-110 -68 -168.5 -89.5t-113.5 -21.5q-183 0 -297.5 120.5t-114.5 312.5q0 109 42 206t122 170q81 75 167 112.5t177 37.5q56 0 112 -13.5t115 -41.5l84 57q13 8 16.5 10t6.5 2q10 0 16 -10t6 -29v-8q-2 -38 -2 -76v-1128z" unicode="q" horiz-adv-x="1118"/>
<glyph glyph-name="r" d="M60 0v51q90 2 114.5 18.5t24.5 90.5v41v436q0 98 -25.5 128.5t-97.5 53.5v25q61 17 120.5 42.5t116.5 57.5h47v-211q73 104 136 150.5t131 46.5q53 0 82.5 -27t29.5 -76q0 -51 -23 -80.5t-63 -29.5q-19 0 -59.5 23.5t-71.5 23.5q-79 0 -119.5 -55t-40.5 -164v-391 q0 -66 23.5 -84.5t126.5 -18.5h63v-51q-69 3 -149 4.5t-168 1.5q-54 0 -103.5 -1.5t-94.5 -4.5z" unicode="r" horiz-adv-x="797"/>
<glyph glyph-name="s" d="M96 45l-24 240l41 8q28 -122 93 -188t156 -66q76 0 122 44t46 116q0 95 -182 185q-1 1 -2 1q-149 73 -203.5 134t-54.5 145q0 125 82.5 199.5t222.5 74.5q66 0 124.5 -12.5t111.5 -39.5q5 -43 7.5 -81t2.5 -72q0 -23 -0.5 -34t-1.5 -21h-39q-17 96 -73 150.5t-138 54.5 q-73 0 -117.5 -39t-44.5 -103q0 -101 198 -193q33 -15 50 -24q118 -55 167.5 -116.5t49.5 -147.5q0 -118 -100.5 -201.5t-247.5 -83.5q-57 0 -117.5 17.5t-128.5 52.5z" unicode="s" horiz-adv-x="758"/>
<glyph glyph-name="t" d="M608 150l29 -35q-85 -75 -148 -107.5t-120 -32.5q-108 0 -150.5 60t-42.5 229v533h-135v39q88 55 157.5 126.5t114.5 153.5h23v-213h307v-106h-307v-502q0 -115 29 -160t98 -45q33 0 69.5 15t75.5 45z" unicode="t" horiz-adv-x="674"/>
<glyph glyph-name="u" d="M758 -25v168q-107 -81 -203 -123.5t-174 -42.5q-103 0 -154 66t-51 199v417q0 125 -26.5 157t-100.5 44v37l238 16h47v-546q0 -158 37.5 -219.5t128.5 -61.5q56 0 121.5 32.5t130.5 92.5v498q0 63 -31 90.5t-137 52.5v45l284 16h52v-739q0 -66 12.5 -81t50.5 -15h43h27 v-39z" unicode="u" horiz-adv-x="1118"/>
<glyph glyph-name="v" d="M709 694q12 33 18 57.5t6 41.5q0 38 -23 55.5t-73 17.5h-8v47q18 0 51 -1q85 -3 111 -3q33 0 89 2t78 2v-47h-6q-52 0 -85.5 -31t-71.5 -124l-293 -736h-51l-279 744q-35 91 -65.5 117.5t-85.5 27.5v49q41 -3 88.5 -4.5t99.5 -1.5q54 0 110 1.5t113 4.5v-47h-18 q-47 0 -71 -14.5t-24 -42.5q0 -15 17 -57q4 -11 6 -17l188 -499z" unicode="v" horiz-adv-x="1006"/>
<glyph glyph-name="w" d="M772 608l-248 -633h-63l-283 728q-1 3 -5 13q-55 142 -161 148v49q46 -5 96.5 -7.5t110.5 -2.5q23 0 64.5 2t138.5 8v-48q-60 -4 -84.5 -14.5t-24.5 -31.5q0 -16 24 -74q1 -1 1 -2l205 -524l163 417q10 24 14.5 47t4.5 44q0 64 -36.5 97.5t-113.5 39.5l1 49 q77 -5 124 -7.5t76 -2.5q59 0 116 2.5t109 7.5v-49q-56 0 -85 -15t-29 -44q0 -18 13 -49q7 -16 9 -22l197 -513l170 445q16 40 25.5 76.5t9.5 54.5q0 34 -29.5 50t-95.5 18v48q70 -4 109.5 -6t72.5 -2q30 0 73 2t95 6v-48q-63 -8 -101 -45.5t-85 -162.5l-260 -682h-66z" unicode="w" horiz-adv-x="1546"/>
<glyph glyph-name="x" d="M508 369l-205 -240q-15 -17 -19.5 -24t-4.5 -13q0 -25 18 -34t102 -9v-49q-37 1 -103 2q-128 2 -169 2q-17 0 -69 -2q-28 -1 -46 -2v53h25q68 0 119 29.5t123 118.5l188 227l-260 340q-39 51 -74 72.5t-76 21.5h-6v51q30 -3 66 -4.5t110 -1.5q63 0 126 1.5t128 4.5v-51 q-62 0 -82 -7t-20 -26q0 -17 19 -39q6 -7 9 -11l168 -220l185 221q8 10 12 21.5t4 23.5q0 18 -18.5 27.5t-55.5 9.5h-18v51q39 0 104 -2t82 -2q33 0 72 1t115 3v-51h-13q-67 0 -124 -32.5t-117 -104.5l-187 -223l257 -335q2 -3 8 -11q77 -103 163 -103h11l-1 -53 q-28 3 -63.5 4.5t-109.5 1.5q-92 0 -152 -1.5t-118 -4.5l2 53q8 -1 17.5 -1.5t26.5 -0.5q30 0 43 7.5t13 23.5q0 7 -3 14.5t-12 20.5z" unicode="x" horiz-adv-x="1120"/>
<glyph glyph-name="y" d="M301 -283l135 328l-266 690q-15 40 -32.5 67.5t-35.5 39.5q-10 7 -31.5 13t-51.5 9v49q37 -2 63 -3t51 -1q52 0 152.5 2t148.5 2v-49q-4 0 -13 1t-11 1q-43 0 -63.5 -15t-20.5 -46q0 -11 4 -27t12 -35l188 -477l177 418q11 28 17.5 56t6.5 46q0 41 -23 59.5t-73 18.5h-17 v49q15 -2 33 -3t60 -1h80q75 0 109.5 1t62.5 3v-49q-59 0 -96.5 -30.5t-67.5 -104.5l-439 -1048q-34 -82 -68 -115t-81 -33q-43 0 -69.5 28.5t-26.5 73.5q0 46 29.5 74.5t74.5 28.5q11 0 28.5 -4t53.5 -17z" unicode="y" horiz-adv-x="1006"/>
<glyph glyph-name="z" d="M45 0l522 842h-209q-117 0 -159.5 -31t-69.5 -121h-53l28 260h45q3 -24 25 -33.5t92 -9.5h527v-18l-523 -823l312 10q96 4 179 154q17 31 27 49l46 -19l-58 -260h-731z" unicode="z" horiz-adv-x="891"/>
<glyph glyph-name="braceleft" d="M846 1516v-51q-142 -2 -194 -55.5t-52 -209.5v-143q0 -226 -61 -308.5t-226 -113.5q165 -31 226 -113.5t61 -308.5v-143q0 -156 51.5 -208.5t194.5 -54.5v-51h-10q-217 0 -298 73.5t-81 272.5v213q0 158 -59 218t-222 73v60q165 15 223 74t58 216v213q0 200 81 273.5 t298 73.5h10z" unicode="{" horiz-adv-x="1024"/>
<glyph glyph-name="bar" d="M449 1565h126v-2048h-126v2048z" unicode="|" horiz-adv-x="1024"/>
<glyph glyph-name="braceright" d="M178 1516h10q216 0 297.5 -74t81.5 -273v-213q0 -157 58 -216t223 -74v-60q-163 -13 -222 -73t-59 -218v-213q0 -198 -81.5 -272t-297.5 -74h-10v51q143 2 194.5 54.5t51.5 208.5v143q0 226 61 308.5t226 113.5q-165 31 -226 113.5t-61 308.5v143q0 156 -52 209.5 t-194 55.5v51z" unicode="}" horiz-adv-x="1024"/>
<glyph glyph-name="asciitilde" d="M1530 758v-131q-101 -72 -197.5 -108t-189.5 -36q-43 0 -90.5 9t-100.5 26q-30 10 -87 31q-202 72 -302 72q-83 0 -173.5 -37.5t-211.5 -122.5v133q105 73 202 109t185 36q56 0 116.5 -12.5t174.5 -52.5q12 -4 35 -13q164 -59 254 -59q85 0 176 36.5t209 119.5z" unicode="~" horiz-adv-x="1706"/>
<glyph glyph-name="nonbreakingspace" unicode=" "/>
<glyph glyph-name="exclamdown" d="M362 1042l82 -647q1 -3 1 -8q14 -115 14 -197q0 -109 -29 -162t-88 -53q-56 0 -87.5 48.5t-31.5 136.5q0 31 5.5 94t15.5 145l75 643h43zM213 1327q0 54 37.5 91.5t91.5 37.5q53 0 90 -37.5t37 -91.5t-36.5 -90.5t-90.5 -36.5t-91.5 37t-37.5 90z" unicode="¡" horiz-adv-x="682"/>
<glyph glyph-name="cent" d="M451 195l229 649q-27 10 -54.5 15t-52.5 5q-111 0 -187.5 -96.5t-76.5 -241.5q0 -106 35.5 -190t106.5 -141zM909 227l33 -34q-90 -109 -181 -161t-192 -52q-25 0 -53 3t-61 9l-97 -273h-73l104 293q-120 68 -182 172t-62 238q0 220 150.5 366t380.5 146q7 0 20.5 -1 t20.5 -1l82 246h75l-88 -256q74 -23 105 -51.5t31 -71.5q0 -37 -21.5 -61.5t-52.5 -24.5q-28 0 -52.5 20.5t-58.5 75.5l-225 -655q41 -16 76.5 -23.5t68.5 -7.5q63 0 124.5 25.5t127.5 78.5z" unicode="¢"/>
<glyph glyph-name="sterling" d="M281 170q-55 -89 -104.5 -132.5t-96.5 -43.5q-13 0 -22 12.5t-9 32.5q0 56 54.5 112t140.5 82q33 48 61 181t49 342h-229l10 82h232q55 352 189.5 538.5t332.5 186.5q79 0 127.5 -32t48.5 -83q0 -41 -22 -60.5t-68 -19.5q-15 0 -23 0.5t-16 2.5q-2 64 -27.5 96t-74.5 32 q-106 0 -167 -137t-114 -524h272l-10 -82h-274q-28 -142 -79.5 -265.5t-131.5 -238.5h5q36 4 52 4q40 0 78.5 -7t73.5 -22q41 -16 117 -71q18 -14 28 -21q3 -2 10 -7q82 -58 133 -58q44 0 70.5 28.5t26.5 75.5q0 25 -21 47.5t-63 42.5q12 40 32.5 60t49.5 20q40 0 65 -29 t25 -77q0 -113 -86.5 -189t-214.5 -76q-53 0 -100.5 15.5t-90.5 46.5q-20 14 -56 43q-110 86 -183 92z" unicode="£"/>
<glyph glyph-name="currency" d="M623 1200q-130 0 -222 -92t-92 -221q0 -131 91.5 -223.5t222.5 -92.5q129 0 221 93t92 223q0 129 -91.5 221t-221.5 92zM158 1419l207 -207q60 46 122.5 68.5t133.5 22.5t135.5 -22.5t124.5 -68.5l204 207l72 -73l-205 -205q43 -57 64.5 -121t21.5 -135t-21.5 -135.5 t-64.5 -120.5l205 -205l-72 -74l-204 207q-57 -44 -121.5 -66t-138.5 -22t-136.5 21.5t-119.5 66.5l-207 -207l-72 74l207 205q-44 58 -66 122t-22 134q0 69 22 133.5t66 122.5l-207 205z" unicode="¤" horiz-adv-x="1241"/>
<glyph glyph-name="yen" d="M31 621v65h450l-133 180h-317v66h270l-201 274q-32 46 -56 70.5t-50 38.5q-21 11 -48 17t-65 8v54q30 -3 62 -4t94 -1h74h71q73 0 116.5 1.5t84.5 3.5v-55q-59 0 -86 -10t-27 -33q0 -28 38 -81q8 -12 11 -17l304 -428l274 393l2 3q55 80 55 112q0 34 -23 48.5t-79 14.5 q-7 0 -21 -1t-22 -1v56q16 -2 38 -3t71 -1h88h88q46 0 66.5 1t35.5 3v-56q-47 -3 -92 -41.5t-115 -138.5l-160 -227h281v-66h-330l-121 -180h451v-65h-451v-308q0 -186 32 -223t130 -37h27l-1 -53q-50 3 -109 4.5t-173 1.5q-42 0 -109.5 -1.5t-158.5 -4.5v53h14 q106 0 138 25t32 139v27v377h-450z" unicode="¥"/>
<glyph glyph-name="brokenbar" d="M449 408h126v-758h-126v758zM449 1432h126v-758h-126v758z" unicode="¦" horiz-adv-x="1024"/>
<glyph glyph-name="section" d="M655 -209q68 66 99.5 143.5t31.5 176.5q0 92 -37.5 193.5t-144.5 277.5q-34 55 -100 153q-178 265 -178 404q0 33 6 70t18 79q-57 -65 -84.5 -136.5t-27.5 -156.5q0 -83 32 -171t146 -277q28 -46 83 -132q193 -299 193 -452q0 -42 -9 -84t-28 -88zM154 -199q0 34 24.5 57 t61.5 23q42 0 82 -63l6 -9q33 -59 61.5 -80.5t67.5 -21.5q73 0 114 56t41 155q0 74 -30.5 154t-126.5 233q-25 40 -74 115q-231 361 -231 551q0 105 40.5 199t118.5 169q59 57 133.5 87t157.5 30q102 0 173 -42t71 -97q0 -33 -23.5 -55.5t-58.5 -22.5q-29 0 -53 14.5 t-46 45.5q-4 6 -13 19q-47 68 -115 68q-66 0 -102 -46t-36 -130q0 -141 169 -395q9 -14 14 -21l14 -21q283 -425 283 -648q0 -198 -135.5 -342.5t-321.5 -144.5q-112 0 -189 49t-77 114z" unicode="§" horiz-adv-x="1024"/>
<glyph glyph-name="dieresis" d="M590 1217q0 44 34.5 78t80.5 34q45 0 77.5 -33t32.5 -79q0 -50 -31 -82.5t-79 -32.5q-49 0 -82 33t-33 82zM207 1217q0 45 33.5 78.5t78.5 33.5q47 0 80 -33t33 -79q0 -50 -32 -82.5t-81 -32.5q-48 0 -80 32.5t-32 82.5z" unicode="¨" horiz-adv-x="1024"/>
<glyph glyph-name="copyright" d="M1120 1096h35l2 -314h-41q-34 137 -104 206t-176 69q-123 0 -185.5 -94.5t-62.5 -278.5q0 -189 67 -285t199 -96q86 0 156 43t127 131l34 -24q-58 -105 -143 -157t-199 -52q-167 0 -285 123t-118 297q0 186 116 312t285 126q74 0 148 -34t82 -34q27 0 42 14.5t21 47.5z M844 1303q-123 0 -237.5 -48.5t-200.5 -136.5q-88 -89 -134.5 -202.5t-46.5 -237.5q0 -125 47 -238.5t136 -201.5q88 -89 198.5 -135t235.5 -46q126 0 236.5 46t197.5 135q88 90 135 203t47 237t-47.5 240.5t-132.5 201.5q-86 87 -200.5 135t-233.5 48zM844 1382 q137 0 266.5 -53.5t226.5 -150.5q98 -97 152.5 -228.5t54.5 -271.5t-53 -268t-154 -230q-98 -100 -225 -152.5t-270 -52.5t-269 52.5t-227 152.5t-154 227t-53 271q0 140 53 268.5t152 229.5q98 99 228 152.5t272 53.5z" unicode="©" horiz-adv-x="1683"/>
<glyph glyph-name="ordfeminine" d="M453 934v182q-171 -49 -224 -82.5t-53 -81.5q0 -40 35 -70t82 -30q39 0 81.5 22t78.5 60zM456 882q-73 -53 -133 -78.5t-110 -25.5q-68 0 -112 39t-44 98q0 69 70.5 115.5t325.5 122.5v98q0 65 -36 96t-110 31q-52 0 -80.5 -25t-36.5 -80q-3 -25 -23 -38.5t-54 -13.5 q-17 0 -24 6t-7 20q0 36 22 64.5t74 58.5q67 40 119 60t88 20q99 0 144.5 -41t45.5 -131v-332q0 -51 13.5 -66.5t48.5 -15.5q15 0 27 4.5t22 12.5l19 -19q-39 -39 -81 -61.5t-73 -22.5q-42 0 -67.5 29t-27.5 75z" unicode="ª" horiz-adv-x="719"/>
<glyph glyph-name="guillemotleft" d="M805 184l-37 -32l-336 337l338 330l33 -28l-209 -306zM467 184l-37 -32l-336 337l338 330l31 -28l-207 -306z" unicode="«" horiz-adv-x="909"/>
<glyph glyph-name="logicalnot" d="M254 858h1198v-502h-115v385h-1083v117z" unicode="¬" horiz-adv-x="1706"/>
<glyph glyph-name="sfthyphen" d="M84 436l20 137h488l-19 -137h-489z" unicode="­" horiz-adv-x="682"/>
<glyph glyph-name="registered" d="M729 719q16 -1 32 -1.5t34 -0.5q112 0 173.5 45.5t61.5 128.5q0 73 -53 117.5t-143 44.5q-52 0 -78.5 -18.5t-26.5 -53.5v-262zM469 1092h393q147 0 232.5 -54.5t85.5 -146.5q0 -76 -69.5 -124t-217.5 -75q93 -29 142 -77.5t71 -133.5q6 -22 11 -63q13 -88 59 -88 q32 0 49.5 34t17.5 99h43v-12q0 -88 -40.5 -133.5t-119.5 -45.5q-46 0 -78.5 17t-48.5 49q-18 40 -21 113.5t-9 95.5q-20 68 -70.5 100.5t-136.5 32.5h-33v-248q0 -54 26.5 -75.5t98.5 -25.5v-40h-385v40q72 3 99.5 24.5t27.5 76.5v516q0 55 -26 76t-101 25v43zM844 1303 q-122 0 -236 -48t-202 -137t-134.5 -202.5t-46.5 -237.5q0 -127 46.5 -239t136.5 -201q88 -89 198.5 -135t235.5 -46q126 0 236.5 46t197.5 135q88 90 135 203t47 237t-47.5 241.5t-132.5 200.5q-86 87 -200.5 135t-233.5 48zM844 1382q138 0 268.5 -54t228.5 -152 q97 -97 150 -228t53 -272q0 -137 -55.5 -267.5t-157.5 -232.5q-99 -99 -224.5 -150t-270.5 -51q-137 0 -263 52.5t-227 152.5t-154 227t-53 271q0 140 53 268.5t152 229.5q98 99 228 152.5t272 53.5z" unicode="®" horiz-adv-x="1683"/>
<glyph glyph-name="macron" d="M242 1145v141h540v-141h-540z" unicode="¯" horiz-adv-x="1024"/>
<glyph glyph-name="degree" d="M338 1372q-84 0 -143.5 -58.5t-59.5 -142.5t59.5 -143t143.5 -59t142.5 59t58.5 143t-58.5 142.5t-142.5 58.5zM338 1454q117 0 200 -83t83 -200q0 -116 -83.5 -199t-201.5 -83t-199.5 82t-81.5 200q0 119 82.5 201t200.5 82z" unicode="°" horiz-adv-x="674"/>
<glyph glyph-name="plusminus" d="M254 158h1198v-117h-1198v117zM795 1180h118v-344h539v-117h-539v-344h-118v344h-541v117h541v344z" unicode="±" horiz-adv-x="1706"/>
<glyph glyph-name="twosuperior" d="M645 561h-608v27q216 168 323 310t107 261q0 85 -46 133.5t-124 48.5q-52 0 -96.5 -25.5t-91.5 -84.5l-27 20q51 83 121.5 124.5t161.5 41.5q98 0 161.5 -61t63.5 -156q0 -98 -75.5 -206t-326.5 -337h379q39 0 53 11.5t35 60.5l35 -8z" unicode="²" horiz-adv-x="752"/>
<glyph glyph-name="threesuperior" d="M131 1270l-20 18q53 64 116 96.5t133 32.5q86 0 141.5 -46.5t55.5 -117.5q0 -62 -45.5 -117.5t-128.5 -95.5v-4q107 -6 165 -59t58 -146q0 -59 -32 -115t-91 -100q-45 -32 -105.5 -50.5t-123.5 -18.5q-82 0 -145.5 33.5t-63.5 72.5q0 16 14 25.5t37 9.5q16 0 32 -22 q2 -3 3 -4q33 -46 67 -62t89 -16q81 0 139.5 60.5t58.5 148.5q0 91 -58.5 140.5t-168.5 49.5q-16 0 -24.5 -0.5t-16.5 -1.5v29q110 16 169.5 67.5t59.5 128.5q0 64 -44.5 105t-114.5 41q-40 0 -77.5 -20t-78.5 -62z" unicode="³" horiz-adv-x="752"/>
<glyph glyph-name="acute" d="M336 1053l276 299q27 29 55 45t52 16q31 0 53.5 -23t22.5 -55q0 -26 -17.5 -47.5t-66.5 -52.5l-301 -182h-74z" unicode="´" horiz-adv-x="1024"/>
<glyph glyph-name="mu" d="M164 193q-27 -136 -52 -339q-34 -272 -112 -272q-37 0 -58.5 23.5t-21.5 64.5q0 40 64.5 273.5t105.5 427.5l109 514h147l-104 -492q-6 -30 -9.5 -58.5t-3.5 -53.5q0 -83 42 -129t118 -46q98 0 163.5 68.5t94.5 200.5l111 510h149l-114 -531q-13 -59 -17 -87.5t-4 -49.5 q0 -48 26 -78t66 -30q35 0 65.5 18t51.5 51t41 93.5t39 60.5q12 0 19 -10t7 -27q0 -25 -11 -66.5t-29 -83.5q-38 -82 -95 -122.5t-135 -40.5q-68 0 -108.5 51t-40.5 139v23q-46 -110 -116 -164t-165 -54q-96 0 -152.5 54.5t-70.5 161.5z" unicode="µ" horiz-adv-x="1120"/>
<glyph glyph-name="paragraph" d="M948 1479v-78h-125v-1401h-94v1401h-182v-1401h-96v782q-173 8 -274 102.5t-101 245.5q0 157 107.5 253t285.5 96h479z" unicode="¶" horiz-adv-x="1024"/>
<glyph glyph-name="glyph121" d="M145 623q0 55 39 93t95 38q55 0 93 -38t38 -93q0 -56 -38 -95t-93 -39q-56 0 -95 39t-39 95z" unicode="·" horiz-adv-x="569"/>
<glyph glyph-name="cedilla" d="M240 -379l36 90q60 -37 120.5 -57.5t113.5 -20.5q57 0 84 22t27 69q0 42 -27.5 64t-81.5 22q-13 0 -29 -2l-32 -4v196h63v-115q11 2 23.5 3t37.5 1q88 0 137.5 -43.5t49.5 -121.5q0 -84 -59.5 -131.5t-165.5 -47.5q-59 0 -131 18.5t-166 57.5z" unicode="¸" horiz-adv-x="1024"/>
<glyph glyph-name="onesuperior" d="M176 561v33h39q79 0 102 16t23 74v631q-55 -30 -100.5 -52.5t-87.5 -41.5l-15 30q108 54 179.5 94t136.5 80l8 -8v-733q0 -59 18 -74.5t74 -15.5h57v-33q-37 2 -75 3t-78 1q-132 0 -186.5 -1t-94.5 -3z" unicode="¹" horiz-adv-x="752"/>
<glyph glyph-name="ordmasculine" d="M207 1130q0 -138 64 -224.5t163 -86.5q93 0 150 79t57 210q0 138 -62 220.5t-165 82.5q-91 0 -149 -78t-58 -203zM68 1110q0 146 102.5 243t257.5 97q154 0 255 -93t101 -233q0 -145 -105.5 -246.5t-258.5 -101.5q-148 0 -250 97.5t-102 236.5z" unicode="º" horiz-adv-x="854"/>
<glyph glyph-name="guillemotright" d="M477 152l-37 32l211 301l-207 306l31 28l338 -330zM137 152l-35 32l211 301l-209 306l31 28l340 -330z" unicode="»" horiz-adv-x="909"/>
<glyph glyph-name="onequarter" d="M1470 332l5 358l-297 -358h292zM1579 0h-109v250h-387v51l430 498h66v-467h123v-82h-123v-250zM1309 1427h90l-928 -1452h-94zM170 616v31h35q76 0 97.5 14.5t21.5 69.5v590q-44 -25 -88.5 -47.5t-90.5 -42.5l-14 31q70 32 145.5 72.5t155.5 88.5l8 -8v-684 q0 -55 17.5 -69.5t70.5 -14.5h54v-31q-35 2 -71.5 3.5t-74.5 1.5q-125 0 -177 -1t-89 -4z" unicode="¼" horiz-adv-x="1776"/>
<glyph glyph-name="onehalf" d="M1675 0h-579v25q205 157 306 289.5t101 244.5q0 79 -43 124.5t-117 45.5q-49 0 -91.5 -24.5t-88.5 -79.5l-26 20q49 77 116 115.5t152 38.5q95 0 156 -57t61 -146q0 -91 -73 -193t-310 -313h360q38 0 51.5 11t35.5 57l30 -8zM1309 1427h90l-928 -1452h-94zM170 616v31h35 q76 0 97.5 14.5t21.5 69.5v590q-44 -25 -88.5 -47.5t-90.5 -42.5l-14 31q70 32 145.5 72.5t155.5 88.5l8 -8v-684q0 -55 17.5 -69.5t70.5 -14.5h54v-31q-35 2 -71.5 3.5t-74.5 1.5q-125 0 -177 -1t-89 -4z" unicode="½" horiz-adv-x="1776"/>
<glyph glyph-name="threequarters" d="M1470 332l5 358l-297 -358h292zM1579 0h-109v250h-387v51l430 498h66v-467h123v-82h-123v-250zM1309 1427h90l-928 -1452h-94zM125 1278l-19 18q51 60 110.5 89.5t127.5 29.5q82 0 135 -43.5t53 -109.5q0 -58 -43.5 -109.5t-123.5 -89.5l2 -2q102 -6 156.5 -56t54.5 -137 q0 -55 -31 -107.5t-86 -92.5q-44 -31 -101.5 -48.5t-117.5 -17.5q-78 0 -138.5 32t-60.5 68q0 14 14 23.5t35 9.5q17 0 30 -21q2 -4 3 -5q31 -42 63.5 -57t85.5 -15q78 0 133.5 56.5t55.5 137.5q0 87 -56 133t-161 46h-39v24q105 17 163 65.5t58 119.5q0 59 -43.5 98 t-110.5 39q-37 0 -72.5 -18.5t-76.5 -59.5z" unicode="¾" horiz-adv-x="1778"/>
<glyph glyph-name="questiondown" d="M588 1042h63v-372q-162 -6 -253 -75.5t-91 -186.5q0 -88 50.5 -148t140.5 -78q10 -2 21 -3t32 -1h59q31 0 45 -2.5t23 -7.5q24 -10 35.5 -28t11.5 -44q0 -44 -31.5 -71t-83.5 -27q-67 0 -134 39t-126 113q-61 76 -99 180t-38 196q0 124 59.5 200.5t178.5 107.5 q19 5 51 12q86 18 86 110v86zM715 1327q0 -54 -37 -90.5t-92 -36.5q-53 0 -90 37t-37 90q0 54 37 91.5t90 37.5q54 0 91.5 -37.5t37.5 -91.5z" unicode="¿" horiz-adv-x="901"/>
<glyph glyph-name="Agrave" d="M416 621h407l-217 602zM-22 0l-1 51h15q75 0 120.5 43.5t94.5 181.5l287 805q39 106 53 168t14 117v25q29 15 57.5 37.5t55.5 50.5h41l463 -1280q32 -86 71.5 -115t122.5 -33v-51q-56 3 -120.5 4.5t-137.5 1.5q-52 0 -120.5 -1.5t-151.5 -4.5v51q85 4 114 19.5t29 52.5 q0 15 -5 37t-19 67l-103 310h-471l-80 -240q-15 -45 -24 -83.5t-9 -59.5q0 -56 42.5 -79.5t146.5 -23.5l-1 -51q-91 3 -155.5 4.5t-101.5 1.5q-51 0 -108 -1.5t-119 -4.5zM858 1569h-74l-301 182q-49 31 -66.5 52.5t-17.5 47.5q0 32 22.5 55t53.5 23q24 0 52 -16t55 -45z " unicode="À" horiz-adv-x="1366"/>
<glyph glyph-name="Aacute" d="M416 621h407l-217 602zM-22 0l-1 51h15q75 0 120.5 43.5t94.5 181.5l287 805q39 106 53 168t14 117v25q29 15 57.5 37.5t55.5 50.5h41l463 -1280q32 -86 71.5 -115t122.5 -33v-51q-56 3 -120.5 4.5t-137.5 1.5q-52 0 -120.5 -1.5t-151.5 -4.5v51q85 4 114 19.5t29 52.5 q0 15 -5 37t-19 67l-103 310h-471l-80 -240q-15 -45 -24 -83.5t-9 -59.5q0 -56 42.5 -79.5t146.5 -23.5l-1 -51q-91 3 -155.5 4.5t-101.5 1.5q-51 0 -108 -1.5t-119 -4.5zM506 1569l276 299q27 29 55 45t52 16q31 0 53.5 -23t22.5 -55q0 -26 -17.5 -47.5t-66.5 -52.5 l-301 -182h-74z" unicode="Á" horiz-adv-x="1366"/>
<glyph glyph-name="Acircumflex" d="M416 621h407l-217 602zM-22 0l-1 51h15q75 0 120.5 43.5t94.5 181.5l287 805q39 106 53 168t14 117v25q29 15 57.5 37.5t55.5 50.5h41l463 -1280q32 -86 71.5 -115t122.5 -33v-51q-56 3 -120.5 4.5t-137.5 1.5q-52 0 -120.5 -1.5t-151.5 -4.5v51q85 4 114 19.5t29 52.5 q0 15 -5 37t-19 67l-103 310h-471l-80 -240q-15 -45 -24 -83.5t-9 -59.5q0 -56 42.5 -79.5t146.5 -23.5l-1 -51q-91 3 -155.5 4.5t-101.5 1.5q-51 0 -108 -1.5t-119 -4.5zM387 1569l227 348h134l229 -348h-74l-221 194l-221 -194h-74z" unicode="Â" horiz-adv-x="1366"/>
<glyph glyph-name="Atilde" d="M416 621h407l-217 602zM-22 0l-1 51h15q75 0 120.5 43.5t94.5 181.5l287 805q39 106 53 168t14 117v25q29 15 57.5 37.5t55.5 50.5h41l463 -1280q32 -86 71.5 -115t122.5 -33v-51q-56 3 -120.5 4.5t-137.5 1.5q-52 0 -120.5 -1.5t-151.5 -4.5v51q85 4 114 19.5t29 52.5 q0 15 -5 37t-19 67l-103 310h-471l-80 -240q-15 -45 -24 -83.5t-9 -59.5q0 -56 42.5 -79.5t146.5 -23.5l-1 -51q-91 3 -155.5 4.5t-101.5 1.5q-51 0 -108 -1.5t-119 -4.5zM965 1886q-22 -113 -71.5 -171t-123.5 -58q-12 0 -24.5 1.5t-26.5 4.5l-107 27q-2 0 -9 2 q-35 8 -44 8q-42 0 -65 -20.5t-37 -69.5h-58q24 117 71.5 173t123.5 56q18 0 34 -2t31 -6l109 -27q21 -5 31.5 -6.5t19.5 -1.5q33 0 55 22.5t33 67.5h58z" unicode="Ã" horiz-adv-x="1366"/>
<glyph glyph-name="Adieresis" d="M416 621h407l-217 602zM-22 0l-1 51h15q75 0 120.5 43.5t94.5 181.5l287 805q39 106 53 168t14 117v25q29 15 57.5 37.5t55.5 50.5h41l463 -1280q32 -86 71.5 -115t122.5 -33v-51q-56 3 -120.5 4.5t-137.5 1.5q-52 0 -120.5 -1.5t-151.5 -4.5v51q85 4 114 19.5t29 52.5 q0 15 -5 37t-19 67l-103 310h-471l-80 -240q-15 -45 -24 -83.5t-9 -59.5q0 -56 42.5 -79.5t146.5 -23.5l-1 -51q-91 3 -155.5 4.5t-101.5 1.5q-51 0 -108 -1.5t-119 -4.5zM760 1733q0 44 34.5 78t80.5 34q45 0 77.5 -33t32.5 -79q0 -50 -31 -82.5t-79 -32.5q-49 0 -82 33 t-33 82zM377 1733q0 45 33.5 78.5t78.5 33.5q47 0 80 -33t33 -79q0 -50 -32 -82.5t-81 -32.5q-48 0 -80 32.5t-32 82.5z" unicode="Ä" horiz-adv-x="1366"/>
<glyph glyph-name="Aring" d="M547 1745q0 -52 36.5 -88.5t88.5 -36.5q50 0 86.5 37t36.5 88t-36.5 88t-86.5 37q-52 0 -88.5 -36.5t-36.5 -88.5zM442 1745q0 95 66 161t162 66q95 0 161 -66t66 -161t-66 -161t-161 -66q-96 0 -162 66t-66 161zM416 621h407l-217 602zM-22 0l-1 51h15q75 0 120.5 43.5 t94.5 181.5l287 805l6 17q63 180 63 254q0 14 -0.5 20.5t-0.5 12.5q36 16 65 34.5t51 38.5l39 4l461 -1263q32 -87 71.5 -115.5t122.5 -32.5v-51q-56 3 -120.5 4.5t-137.5 1.5q-52 0 -120.5 -1.5t-151.5 -4.5v51q85 4 114 19.5t29 52.5q0 15 -5 37t-19 67l-103 310h-471 l-80 -240q-15 -45 -24 -83.5t-9 -59.5q0 -56 42.5 -79.5t146.5 -23.5l-1 -51q-91 3 -155.5 4.5t-101.5 1.5q-51 0 -108 -1.5t-119 -4.5z" unicode="Å" horiz-adv-x="1366"/>
<glyph glyph-name="AE" d="M932 778v588h-17l-321 -588h338zM752 0v57q8 -1 16.5 -1.5t26.5 -0.5q76 0 104.5 32.5t28.5 127.5v473h-379l-252 -457q-18 -31 -28.5 -62t-10.5 -48q0 -36 31 -50t114 -14v-57q-44 3 -94 4.5t-151 1.5q-50 0 -97.5 -1.5t-92.5 -4.5l-1 57q83 8 133 43.5t101 128.5 l528 967q33 61 42 85t9 40q0 41 -142 48q-11 1 -17 1v62q85 -2 234 -3.5t331 -1.5q161 0 514 4q29 0 43 1v-316h-43q-6 136 -85 191t-278 55h-211v-584h199q151 0 195.5 36t46.5 138h55q-6 -39 -9 -93t-3 -116q0 -69 3 -133t9 -121h-51v9q0 113 -43.5 151.5t-212.5 38.5 h-189v-422q0 -126 49 -163t238 -37q202 0 284.5 53t137.5 200l49 -14q-15 -32 -38 -113.5t-50 -197.5q-131 6 -275.5 9t-330.5 3q-207 0 -292 -1.5t-146 -4.5z" unicode="Æ" horiz-adv-x="1933"/>
<glyph glyph-name="Ccedilla" d="M1382 383l-45 -297q-112 -55 -228 -82t-239 -27q-162 0 -296.5 49t-237.5 146q-105 98 -165 241.5t-60 297.5q0 157 60.5 295.5t178.5 248.5q106 100 241 149.5t300 49.5q112 0 227.5 -25.5t236.5 -76.5q8 -61 13 -132t8 -157h-41q-40 170 -143 249t-285 79 q-101 0 -189.5 -30t-158.5 -87q-112 -93 -171.5 -223.5t-59.5 -284.5q0 -103 23.5 -199t70.5 -184q84 -160 212.5 -245t285.5 -85q165 0 274.5 89t142.5 251zM564 -379l36 90q60 -37 120.5 -57.5t113.5 -20.5q57 0 84 22t27 69q0 42 -27.5 64t-81.5 22q-13 0 -29 -2l-32 -4 v196h63v-115q11 2 23.5 3t37.5 1q88 0 137.5 -43.5t49.5 -121.5q0 -84 -59.5 -131.5t-165.5 -47.5q-59 0 -131 18.5t-166 57.5z" unicode="Ç" horiz-adv-x="1479"/>
<glyph glyph-name="Egrave" d="M70 0v51q108 0 143 30.5t35 133.5v1026q0 85 -32 109t-146 30v52q40 -1 125 -3q181 -4 274 -4q158 0 355.5 3.5t238.5 3.5v-316l-43 1q-7 135 -85.5 190t-272.5 55h-216v-574h265q98 0 136 38.5t40 133.5l55 1q-6 -58 -9 -104.5t-3 -84.5q0 -79 11 -256q1 -13 1 -18h-51 v16q0 109 -45 146.5t-211 37.5h-189v-428q0 -128 48 -166t239 -38q202 0 284.5 53t137.5 200l49 -14q-25 -62 -47.5 -142.5t-40.5 -170.5q-238 6 -442 9t-328 3q-49 0 -105.5 -0.5t-170.5 -3.5zM782 1569h-74l-301 182q-49 31 -66.5 52.5t-17.5 47.5q0 32 22.5 55t53.5 23 q24 0 52 -16t55 -45z" unicode="È" horiz-adv-x="1251"/>
<glyph glyph-name="Eacute" d="M70 0v51q108 0 143 30.5t35 133.5v1026q0 85 -32 109t-146 30v52q40 -1 125 -3q181 -4 274 -4q158 0 355.5 3.5t238.5 3.5v-316l-43 1q-7 135 -85.5 190t-272.5 55h-216v-574h265q98 0 136 38.5t40 133.5l55 1q-6 -58 -9 -104.5t-3 -84.5q0 -79 11 -256q1 -13 1 -18h-51 v16q0 109 -45 146.5t-211 37.5h-189v-428q0 -128 48 -166t239 -38q202 0 284.5 53t137.5 200l49 -14q-25 -62 -47.5 -142.5t-40.5 -170.5q-238 6 -442 9t-328 3q-49 0 -105.5 -0.5t-170.5 -3.5zM430 1569l276 299q27 29 55 45t52 16q31 0 53.5 -23t22.5 -55 q0 -26 -17.5 -47.5t-66.5 -52.5l-301 -182h-74z" unicode="É" horiz-adv-x="1251"/>
<glyph glyph-name="Ecircumflex" d="M70 0v51q108 0 143 30.5t35 133.5v1026q0 85 -32 109t-146 30v52q40 -1 125 -3q181 -4 274 -4q158 0 355.5 3.5t238.5 3.5v-316l-43 1q-7 135 -85.5 190t-272.5 55h-216v-574h265q98 0 136 38.5t40 133.5l55 1q-6 -58 -9 -104.5t-3 -84.5q0 -79 11 -256q1 -13 1 -18h-51 v16q0 109 -45 146.5t-211 37.5h-189v-428q0 -128 48 -166t239 -38q202 0 284.5 53t137.5 200l49 -14q-25 -62 -47.5 -142.5t-40.5 -170.5q-238 6 -442 9t-328 3q-49 0 -105.5 -0.5t-170.5 -3.5zM311 1569l227 348h134l229 -348h-74l-221 194l-221 -194h-74z" unicode="Ê" horiz-adv-x="1251"/>
<glyph glyph-name="Edieresis" d="M70 0v51q108 0 143 30.5t35 133.5v1026q0 85 -32 109t-146 30v52q40 -1 125 -3q181 -4 274 -4q158 0 355.5 3.5t238.5 3.5v-316l-43 1q-7 135 -85.5 190t-272.5 55h-216v-574h265q98 0 136 38.5t40 133.5l55 1q-6 -58 -9 -104.5t-3 -84.5q0 -79 11 -256q1 -13 1 -18h-51 v16q0 109 -45 146.5t-211 37.5h-189v-428q0 -128 48 -166t239 -38q202 0 284.5 53t137.5 200l49 -14q-25 -62 -47.5 -142.5t-40.5 -170.5q-238 6 -442 9t-328 3q-49 0 -105.5 -0.5t-170.5 -3.5zM684 1733q0 44 34.5 78t80.5 34q45 0 77.5 -33t32.5 -79q0 -50 -31 -82.5 t-79 -32.5q-49 0 -82 33t-33 82zM301 1733q0 45 33.5 78.5t78.5 33.5q47 0 80 -33t33 -79q0 -50 -32 -82.5t-81 -32.5q-48 0 -80 32.5t-32 82.5z" unicode="Ë" horiz-adv-x="1251"/>
<glyph glyph-name="Igrave" d="M70 0v51q107 0 141.5 30t34.5 134v1026q0 86 -31.5 109.5t-144.5 29.5v51q63 -3 132 -4.5t144 -1.5q113 0 169 1.5t106 4.5v-51q-109 -4 -144 -37.5t-35 -179.5v-868q0 -170 33.5 -207t136.5 -37h4h5l-1 -51q-56 3 -119 4.5t-132 1.5q-78 0 -153 -1.5t-146 -4.5z M524 1569h-74l-301 182q-49 31 -66.5 52.5t-17.5 47.5q0 32 22.5 55t53.5 23q24 0 52 -16t55 -45z" unicode="Ì" horiz-adv-x="692"/>
<glyph glyph-name="Iacute" d="M70 0v51q107 0 141.5 30t34.5 134v1026q0 86 -31.5 109.5t-144.5 29.5v51q63 -3 132 -4.5t144 -1.5q113 0 169 1.5t106 4.5v-51q-109 -4 -144 -37.5t-35 -179.5v-868q0 -170 33.5 -207t136.5 -37h4h5l-1 -51q-56 3 -119 4.5t-132 1.5q-78 0 -153 -1.5t-146 -4.5z M172 1569l276 299q27 29 55 45t52 16q31 0 53.5 -23t22.5 -55q0 -26 -17.5 -47.5t-66.5 -52.5l-301 -182h-74z" unicode="Í" horiz-adv-x="692"/>
<glyph glyph-name="Icircumflex" d="M70 0v51q107 0 141.5 30t34.5 134v1026q0 86 -31.5 109.5t-144.5 29.5v51q63 -3 132 -4.5t144 -1.5q113 0 169 1.5t106 4.5v-51q-109 -4 -144 -37.5t-35 -179.5v-868q0 -170 33.5 -207t136.5 -37h4h5l-1 -51q-56 3 -119 4.5t-132 1.5q-78 0 -153 -1.5t-146 -4.5zM53 1569 l227 348h134l229 -348h-74l-221 194l-221 -194h-74z" unicode="Î" horiz-adv-x="692"/>
<glyph glyph-name="Idieresis" d="M70 0v51q107 0 141.5 30t34.5 134v1026q0 86 -31.5 109.5t-144.5 29.5v51q63 -3 132 -4.5t144 -1.5q113 0 169 1.5t106 4.5v-51q-109 -4 -144 -37.5t-35 -179.5v-868q0 -170 33.5 -207t136.5 -37h4h5l-1 -51q-56 3 -119 4.5t-132 1.5q-78 0 -153 -1.5t-146 -4.5z M426 1733q0 44 34.5 78t80.5 34q45 0 77.5 -33t32.5 -79q0 -50 -31 -82.5t-79 -32.5q-49 0 -82 33t-33 82zM43 1733q0 45 33.5 78.5t78.5 33.5q47 0 80 -33t33 -79q0 -50 -32 -82.5t-81 -32.5q-48 0 -80 32.5t-32 82.5z" unicode="Ï" horiz-adv-x="692"/>
<glyph glyph-name="Eth" d="M80 51q108 0 142 30t34 134v492h-256v79h256v455q0 86 -31.5 109.5t-144.5 29.5v52q38 -5 79 -7t91 -2q51 0 152.5 2t152.5 2q237 0 388.5 -41.5t266.5 -134.5q125 -101 190.5 -236.5t65.5 -291.5q0 -338 -232 -530.5t-644 -192.5q-44 0 -120 3t-108 3q-61 0 -132 -1.5 t-150 -4.5v51zM451 336q0 -168 43 -215t163 -47q273 0 431.5 167t158.5 455q0 313 -185 490.5t-511 177.5q-31 0 -95 -4h-5v-574h331v-79h-331v-371z" unicode="Ð" horiz-adv-x="1583"/>
<glyph glyph-name="Ntilde" d="M47 0v53h6q117 0 158 51t41 287v764q0 118 -52 167t-185 58l-1 51q44 -3 85.5 -4.5t88.5 -1.5q59 0 98 1.5t79 4.5l997 -1105v716q0 209 -45 273.5t-170 64.5h-14h-7v52q32 0 115.5 -2.5t134.5 -2.5q55 0 144.5 2.5t124.5 2.5l-1 -52q-117 -5 -155.5 -53.5t-38.5 -263.5 v-1083h-45l-1063 1181v-772q0 -219 50 -276.5t200 -59.5v-53q-76 4 -149.5 6t-141.5 2q-63 0 -126 -2t-128 -6zM1135 1886q-22 -113 -71.5 -171t-123.5 -58q-12 0 -24.5 1.5t-26.5 4.5l-107 27q-2 0 -9 2q-35 8 -44 8q-42 0 -65 -20.5t-37 -69.5h-58q24 117 71.5 173 t123.5 56q18 0 34 -2t31 -6l109 -27q21 -5 31.5 -6.5t19.5 -1.5q33 0 55 22.5t33 67.5h58z" unicode="Ñ" horiz-adv-x="1669"/>
<glyph glyph-name="Ograve" d="M330 758q0 -133 38 -257.5t111 -228.5q81 -116 176.5 -170.5t218.5 -54.5q205 0 339.5 172.5t134.5 437.5q0 114 -25.5 221t-75.5 203q-74 144 -191.5 223.5t-254.5 79.5q-205 0 -338 -175t-133 -451zM846 -25q-147 0 -274 50t-230 149q-112 106 -171.5 247t-59.5 298 q0 149 53.5 283.5t154.5 238.5q102 106 230 160.5t276 54.5q155 0 279.5 -49.5t232.5 -153.5q114 -109 173 -245t59 -291q0 -121 -36.5 -233.5t-107.5 -213.5q-105 -147 -250.5 -221t-328.5 -74zM1032 1569h-74l-301 182q-49 31 -66.5 52.5t-17.5 47.5q0 32 22.5 55t53.5 23 q24 0 52 -16t55 -45z" unicode="Ò" horiz-adv-x="1677"/>
<glyph glyph-name="Oacute" d="M330 758q0 -133 38 -257.5t111 -228.5q81 -116 176.5 -170.5t218.5 -54.5q205 0 339.5 172.5t134.5 437.5q0 114 -25.5 221t-75.5 203q-74 144 -191.5 223.5t-254.5 79.5q-205 0 -338 -175t-133 -451zM846 -25q-147 0 -274 50t-230 149q-112 106 -171.5 247t-59.5 298 q0 149 53.5 283.5t154.5 238.5q102 106 230 160.5t276 54.5q155 0 279.5 -49.5t232.5 -153.5q114 -109 173 -245t59 -291q0 -121 -36.5 -233.5t-107.5 -213.5q-105 -147 -250.5 -221t-328.5 -74zM680 1569l276 299q27 29 55 45t52 16q31 0 53.5 -23t22.5 -55 q0 -26 -17.5 -47.5t-66.5 -52.5l-301 -182h-74z" unicode="Ó" horiz-adv-x="1677"/>
<glyph glyph-name="Ocircumflex" d="M330 758q0 -133 38 -257.5t111 -228.5q81 -116 176.5 -170.5t218.5 -54.5q205 0 339.5 172.5t134.5 437.5q0 114 -25.5 221t-75.5 203q-74 144 -191.5 223.5t-254.5 79.5q-205 0 -338 -175t-133 -451zM846 -25q-147 0 -274 50t-230 149q-112 106 -171.5 247t-59.5 298 q0 149 53.5 283.5t154.5 238.5q102 106 230 160.5t276 54.5q155 0 279.5 -49.5t232.5 -153.5q114 -109 173 -245t59 -291q0 -121 -36.5 -233.5t-107.5 -213.5q-105 -147 -250.5 -221t-328.5 -74zM561 1569l227 348h134l229 -348h-74l-221 194l-221 -194h-74z" unicode="Ô" horiz-adv-x="1677"/>
<glyph glyph-name="Otilde" d="M330 758q0 -133 38 -257.5t111 -228.5q81 -116 176.5 -170.5t218.5 -54.5q205 0 339.5 172.5t134.5 437.5q0 114 -25.5 221t-75.5 203q-74 144 -191.5 223.5t-254.5 79.5q-205 0 -338 -175t-133 -451zM846 -25q-147 0 -274 50t-230 149q-112 106 -171.5 247t-59.5 298 q0 149 53.5 283.5t154.5 238.5q102 106 230 160.5t276 54.5q155 0 279.5 -49.5t232.5 -153.5q114 -109 173 -245t59 -291q0 -121 -36.5 -233.5t-107.5 -213.5q-105 -147 -250.5 -221t-328.5 -74zM1139 1886q-22 -113 -71.5 -171t-123.5 -58q-12 0 -24.5 1.5t-26.5 4.5 l-107 27q-2 0 -9 2q-35 8 -44 8q-42 0 -65 -20.5t-37 -69.5h-58q24 117 71.5 173t123.5 56q18 0 34 -2t31 -6l109 -27q21 -5 31.5 -6.5t19.5 -1.5q33 0 55 22.5t33 67.5h58z" unicode="Õ" horiz-adv-x="1677"/>
<glyph glyph-name="Odieresis" d="M330 758q0 -133 38 -257.5t111 -228.5q81 -116 176.5 -170.5t218.5 -54.5q205 0 339.5 172.5t134.5 437.5q0 114 -25.5 221t-75.5 203q-74 144 -191.5 223.5t-254.5 79.5q-205 0 -338 -175t-133 -451zM846 -25q-147 0 -274 50t-230 149q-112 106 -171.5 247t-59.5 298 q0 149 53.5 283.5t154.5 238.5q102 106 230 160.5t276 54.5q155 0 279.5 -49.5t232.5 -153.5q114 -109 173 -245t59 -291q0 -121 -36.5 -233.5t-107.5 -213.5q-105 -147 -250.5 -221t-328.5 -74zM934 1733q0 44 34.5 78t80.5 34q45 0 77.5 -33t32.5 -79q0 -50 -31 -82.5 t-79 -32.5q-49 0 -82 33t-33 82zM551 1733q0 45 33.5 78.5t78.5 33.5q47 0 80 -33t33 -79q0 -50 -32 -82.5t-81 -32.5q-48 0 -80 32.5t-32 82.5z" unicode="Ö" horiz-adv-x="1677"/>
<glyph glyph-name="multiply" d="M381 1169l477 -477l475 477l82 -82l-475 -477l475 -475l-82 -82l-475 475l-477 -475l-80 82l475 475l-475 477z" unicode="×" horiz-adv-x="1706"/>
<glyph glyph-name="Oslash" d="M283 236q-85 104 -127.5 225.5t-42.5 255.5q0 109 29.5 211.5t86.5 191.5q102 159 256 243.5t340 84.5q148 0 266 -44.5t226 -139.5l205 211l57 -58l-207 -207q94 -104 142.5 -230t48.5 -267q0 -120 -36.5 -232.5t-107.5 -212.5q-103 -144 -248.5 -218.5t-326.5 -74.5 q-149 0 -275.5 51t-230.5 152l-232 -227l-57 53zM1239 1081l-780 -782q82 -131 180.5 -191.5t228.5 -60.5q210 0 342.5 171t132.5 441q0 113 -25.5 217t-78.5 205zM420 371l778 778q-79 112 -181 170.5t-218 58.5q-205 0 -337 -173.5t-132 -448.5q0 -109 22 -203.5 t68 -181.5z" unicode="Ø" horiz-adv-x="1677"/>
<glyph glyph-name="Ugrave" d="M37 1376v51q53 0 141 -2t123 -2q45 0 99.5 1t162.5 3v-47h-6q-93 0 -124.5 -39t-31.5 -213v-28v-459q0 -139 13 -226t41 -151q43 -97 134 -152t212 -55q105 0 193.5 51.5t125.5 133.5q22 46 31.5 104.5t9.5 177.5v576q0 190 -36 234t-156 47v46q38 0 117 -1t120 -1 q40 0 114 1t107 1v-47q-92 -5 -124.5 -54t-32.5 -218v-573q0 -288 -131 -423t-410 -135q-274 0 -398 137.5t-124 440.5v588q0 163 -33.5 198t-136.5 35zM952 1569h-74l-301 182q-49 31 -66.5 52.5t-17.5 47.5q0 32 22.5 55t53.5 23q24 0 52 -16t55 -45z" unicode="Ù" horiz-adv-x="1442"/>
<glyph glyph-name="Uacute" d="M37 1376v51q53 0 141 -2t123 -2q45 0 99.5 1t162.5 3v-47h-6q-93 0 -124.5 -39t-31.5 -213v-28v-459q0 -139 13 -226t41 -151q43 -97 134 -152t212 -55q105 0 193.5 51.5t125.5 133.5q22 46 31.5 104.5t9.5 177.5v576q0 190 -36 234t-156 47v46q38 0 117 -1t120 -1 q40 0 114 1t107 1v-47q-92 -5 -124.5 -54t-32.5 -218v-573q0 -288 -131 -423t-410 -135q-274 0 -398 137.5t-124 440.5v588q0 163 -33.5 198t-136.5 35zM600 1569l276 299q27 29 55 45t52 16q31 0 53.5 -23t22.5 -55q0 -26 -17.5 -47.5t-66.5 -52.5l-301 -182h-74z" unicode="Ú" horiz-adv-x="1442"/>
<glyph glyph-name="Ucircumflex" d="M37 1376v51q53 0 141 -2t123 -2q45 0 99.5 1t162.5 3v-47h-6q-93 0 -124.5 -39t-31.5 -213v-28v-459q0 -139 13 -226t41 -151q43 -97 134 -152t212 -55q105 0 193.5 51.5t125.5 133.5q22 46 31.5 104.5t9.5 177.5v576q0 190 -36 234t-156 47v46q38 0 117 -1t120 -1 q40 0 114 1t107 1v-47q-92 -5 -124.5 -54t-32.5 -218v-573q0 -288 -131 -423t-410 -135q-274 0 -398 137.5t-124 440.5v588q0 163 -33.5 198t-136.5 35zM481 1569l227 348h134l229 -348h-74l-221 194l-221 -194h-74z" unicode="Û" horiz-adv-x="1442"/>
<glyph glyph-name="Udieresis" d="M37 1376v51q53 0 141 -2t123 -2q45 0 99.5 1t162.5 3v-47h-6q-93 0 -124.5 -39t-31.5 -213v-28v-459q0 -139 13 -226t41 -151q43 -97 134 -152t212 -55q105 0 193.5 51.5t125.5 133.5q22 46 31.5 104.5t9.5 177.5v576q0 190 -36 234t-156 47v46q38 0 117 -1t120 -1 q40 0 114 1t107 1v-47q-92 -5 -124.5 -54t-32.5 -218v-573q0 -288 -131 -423t-410 -135q-274 0 -398 137.5t-124 440.5v588q0 163 -33.5 198t-136.5 35zM854 1733q0 44 34.5 78t80.5 34q45 0 77.5 -33t32.5 -79q0 -50 -31 -82.5t-79 -32.5q-49 0 -82 33t-33 82zM471 1733 q0 45 33.5 78.5t78.5 33.5q47 0 80 -33t33 -79q0 -50 -32 -82.5t-81 -32.5q-48 0 -80 32.5t-32 82.5z" unicode="Ü" horiz-adv-x="1442"/>
<glyph glyph-name="Yacute" d="M342 1v50h23q101 0 134 26.5t33 145.5v27v448l-391 543q-59 81 -107 110t-114 29h-6v49q48 -3 107.5 -4.5t130.5 -1.5q76 0 151 1.5t145 4.5l1 -49q-63 0 -91 -12t-28 -39q0 -15 9.5 -34t41.5 -62l305 -424l285 387q33 47 46 73t13 46q0 37 -30 51t-119 14v50 q27 0 95.5 -1.5t110.5 -1.5q95 0 132.5 0.5t64.5 1.5v-49q-85 -10 -210 -182l-3 -4l-340 -465v-407q0 -193 33 -232t135 -39h16h11l-1 -51q-69 3 -138 4.5t-136 1.5q-63 0 -140 -1.5t-169 -3.5zM451 1569l276 299q27 29 55 45t52 16q31 0 53.5 -23t22.5 -55 q0 -26 -17.5 -47.5t-66.5 -52.5l-301 -182h-74z" unicode="Ý" horiz-adv-x="1247"/>
<glyph glyph-name="Thorn" d="M444 1167h27h51q263 0 405 -101.5t142 -289.5q0 -186 -129 -301t-340 -115q-20 0 -63 4q-5 0 -7 1l3 59q7 -1 16 -1.5t26 -0.5q134 0 209.5 84t75.5 231q0 180 -89.5 272.5t-262.5 92.5q-25 0 -38 -0.5t-25 -1.5l-1 -805q0 -170 33.5 -207t136.5 -37h4h5l-1 -51 q-50 3 -110 4.5t-182 1.5q-50 0 -116 -1.5t-144 -4.5v51q108 0 143 30.5t35 133.5v1026q0 84 -32 108.5t-146 30.5v51q54 -2 122 -4t146 -2q87 0 157.5 1.5t125.5 4.5v-51q-114 -6 -145.5 -29.5t-31.5 -109.5v-74z" unicode="Þ" horiz-adv-x="1157"/>
<glyph glyph-name="germandbls" d="M182 897q2 288 158.5 471.5t394.5 183.5q141 0 228.5 -72t87.5 -188q0 -71 -32.5 -130.5t-98.5 -110.5q-29 -23 -82 -61q-160 -116 -160 -195q0 -41 20.5 -72.5t92.5 -83.5l3 -3q238 -175 238 -343q0 -126 -94 -221t-223 -95q-90 0 -142.5 34t-52.5 91q0 26 20 45t48 19 q40 0 75 -62q0 -1 1 -2q21 -38 41.5 -50.5t54.5 -12.5q60 0 97.5 50.5t37.5 133.5q0 55 -31 101.5t-125 117.5q-8 7 -24 19q-176 135 -176 244q0 55 29.5 110.5t84.5 102.5q26 22 76 61q178 140 178 256q0 108 -69.5 174t-184.5 66q-67 0 -126.5 -32.5t-104.5 -92.5 q-38 -51 -54 -130.5t-16 -234.5v-831q0 -65 20.5 -84t88.5 -19l-1 -51q-38 3 -93 4.5t-129 1.5q-55 0 -101 -1.5t-83 -4.5v51q88 2 111 19t23 96v35v583h-125v35z" unicode="ß" horiz-adv-x="1118"/>
<glyph glyph-name="agrave" d="M602 203v258q-228 -71 -297 -119t-69 -115q0 -57 45.5 -100t107.5 -43q54 0 111 31.5t102 87.5zM608 129q-96 -76 -176.5 -112.5t-148.5 -36.5q-91 0 -149 55t-58 141q0 98 95.5 165t432.5 173v141q0 92 -47.5 136.5t-146.5 44.5q-70 0 -107.5 -35.5t-48.5 -112.5 q-5 -37 -31.5 -56.5t-72.5 -19.5q-23 0 -32 8.5t-9 28.5q0 50 29 91t100 85q88 56 157.5 84.5t116.5 28.5q134 0 195 -58t61 -186v-475q0 -74 17.5 -95.5t64.5 -21.5q20 0 35.5 6.5t27.5 18.5l25 -27q-52 -56 -106.5 -88t-96.5 -32q-56 0 -90.5 40.5t-36.5 108.5zM647 1053 h-74l-301 182q-49 31 -66.5 52.5t-17.5 47.5q0 32 22.5 55t53.5 23q24 0 52 -16t55 -45z" unicode="à" horiz-adv-x="958"/>
<glyph glyph-name="aacute" d="M602 203v258q-228 -71 -297 -119t-69 -115q0 -57 45.5 -100t107.5 -43q54 0 111 31.5t102 87.5zM608 129q-96 -76 -176.5 -112.5t-148.5 -36.5q-91 0 -149 55t-58 141q0 98 95.5 165t432.5 173v141q0 92 -47.5 136.5t-146.5 44.5q-70 0 -107.5 -35.5t-48.5 -112.5 q-5 -37 -31.5 -56.5t-72.5 -19.5q-23 0 -32 8.5t-9 28.5q0 50 29 91t100 85q88 56 157.5 84.5t116.5 28.5q134 0 195 -58t61 -186v-475q0 -74 17.5 -95.5t64.5 -21.5q20 0 35.5 6.5t27.5 18.5l25 -27q-52 -56 -106.5 -88t-96.5 -32q-56 0 -90.5 40.5t-36.5 108.5zM295 1053 l276 299q27 29 55 45t52 16q31 0 53.5 -23t22.5 -55q0 -26 -17.5 -47.5t-66.5 -52.5l-301 -182h-74z" unicode="á" horiz-adv-x="958"/>
<glyph glyph-name="acircumflex" d="M602 203v258q-228 -71 -297 -119t-69 -115q0 -57 45.5 -100t107.5 -43q54 0 111 31.5t102 87.5zM608 129q-96 -76 -176.5 -112.5t-148.5 -36.5q-91 0 -149 55t-58 141q0 98 95.5 165t432.5 173v141q0 92 -47.5 136.5t-146.5 44.5q-70 0 -107.5 -35.5t-48.5 -112.5 q-5 -37 -31.5 -56.5t-72.5 -19.5q-23 0 -32 8.5t-9 28.5q0 50 29 91t100 85q88 56 157.5 84.5t116.5 28.5q134 0 195 -58t61 -186v-475q0 -74 17.5 -95.5t64.5 -21.5q20 0 35.5 6.5t27.5 18.5l25 -27q-52 -56 -106.5 -88t-96.5 -32q-56 0 -90.5 40.5t-36.5 108.5zM176 1053 l227 348h134l229 -348h-74l-221 194l-221 -194h-74z" unicode="â" horiz-adv-x="958"/>
<glyph glyph-name="atilde" d="M602 203v258q-228 -71 -297 -119t-69 -115q0 -57 45.5 -100t107.5 -43q54 0 111 31.5t102 87.5zM608 129q-96 -76 -176.5 -112.5t-148.5 -36.5q-91 0 -149 55t-58 141q0 98 95.5 165t432.5 173v141q0 92 -47.5 136.5t-146.5 44.5q-70 0 -107.5 -35.5t-48.5 -112.5 q-5 -37 -31.5 -56.5t-72.5 -19.5q-23 0 -32 8.5t-9 28.5q0 50 29 91t100 85q88 56 157.5 84.5t116.5 28.5q134 0 195 -58t61 -186v-475q0 -74 17.5 -95.5t64.5 -21.5q20 0 35.5 6.5t27.5 18.5l25 -27q-52 -56 -106.5 -88t-96.5 -32q-56 0 -90.5 40.5t-36.5 108.5zM754 1370 q-22 -113 -71.5 -171t-123.5 -58q-12 0 -24.5 1.5t-26.5 4.5l-107 27q-2 0 -9 2q-35 8 -44 8q-42 0 -65 -20.5t-37 -69.5h-58q24 117 71.5 173t123.5 56q18 0 34 -2t31 -6l109 -27q21 -5 31.5 -6.5t19.5 -1.5q33 0 55 22.5t33 67.5h58z" unicode="ã" horiz-adv-x="958"/>
<glyph glyph-name="adieresis" d="M602 203v258q-228 -71 -297 -119t-69 -115q0 -57 45.5 -100t107.5 -43q54 0 111 31.5t102 87.5zM608 129q-96 -76 -176.5 -112.5t-148.5 -36.5q-91 0 -149 55t-58 141q0 98 95.5 165t432.5 173v141q0 92 -47.5 136.5t-146.5 44.5q-70 0 -107.5 -35.5t-48.5 -112.5 q-5 -37 -31.5 -56.5t-72.5 -19.5q-23 0 -32 8.5t-9 28.5q0 50 29 91t100 85q88 56 157.5 84.5t116.5 28.5q134 0 195 -58t61 -186v-475q0 -74 17.5 -95.5t64.5 -21.5q20 0 35.5 6.5t27.5 18.5l25 -27q-52 -56 -106.5 -88t-96.5 -32q-56 0 -90.5 40.5t-36.5 108.5zM549 1217 q0 44 34.5 78t80.5 34q45 0 77.5 -33t32.5 -79q0 -50 -31 -82.5t-79 -32.5q-49 0 -82 33t-33 82zM166 1217q0 45 33.5 78.5t78.5 33.5q47 0 80 -33t33 -79q0 -50 -32 -82.5t-81 -32.5q-48 0 -80 32.5t-32 82.5z" unicode="ä" horiz-adv-x="958"/>
<glyph glyph-name="aring" d="M356 1223q0 -53 35.5 -89t87.5 -36q51 0 87 37t36 88t-36 88t-87 37q-52 0 -87.5 -36.5t-35.5 -88.5zM252 1223q0 95 66 161t161 66t161.5 -66t66.5 -161q0 -96 -66.5 -162t-161.5 -66t-161 66t-66 162zM604 203v258q-229 -71 -298.5 -118.5t-69.5 -115.5 q0 -57 45.5 -100t107.5 -43q53 0 110.5 31.5t104.5 87.5zM608 129q-96 -76 -176.5 -112.5t-148.5 -36.5q-91 0 -149 55t-58 141q0 98 95.5 165t432.5 173v141q0 92 -47.5 136.5t-146.5 44.5q-70 0 -107.5 -35.5t-48.5 -112.5q-5 -37 -31.5 -56.5t-72.5 -19.5q-23 0 -32 8.5 t-9 28.5q0 50 29 91t100 85q88 56 157.5 84.5t116.5 28.5q134 0 195 -58t61 -186v-475q0 -74 17.5 -95.5t64.5 -21.5q20 0 35.5 6.5t27.5 18.5l25 -27q-52 -56 -106.5 -88t-96.5 -32q-56 0 -90.5 40.5t-36.5 108.5z" unicode="å" horiz-adv-x="958"/>
<glyph glyph-name="ae" d="M637 425l-250 -81q-76 -25 -98.5 -47.5t-22.5 -60.5q0 -71 40 -113.5t106 -42.5q107 0 167 75t60 212q0 23 -0.5 36t-1.5 22zM684 164h-14q-81 -92 -172.5 -139.5t-186.5 -47.5q-101 0 -164 57.5t-63 149.5q0 56 21.5 94t64.5 56q47 21 244 81q138 43 223 70v136 q0 105 -42 153.5t-132 48.5q-63 0 -107 -26.5t-57 -71.5q-6 -22 -9.5 -54t-8.5 -40q-10 -14 -49.5 -31.5t-67.5 -17.5q-23 0 -34 11t-11 36q0 52 32.5 94.5t104.5 81.5l117 65q4 3 12 7q102 55 174 55q83 0 143 -36.5t86 -102.5q65 73 142.5 108t175.5 35q118 0 200.5 -65 t82.5 -156q0 -32 -11 -46.5t-49 -27.5l-541 -172v-25q0 -152 70.5 -232.5t204.5 -80.5q88 0 163 37t128 106l32 -47q-110 -131 -206 -190.5t-197 -59.5q-104 0 -178.5 46.5t-120.5 140.5zM791 530l274 93q85 28 109 48.5t24 53.5q0 56 -48.5 94.5t-121.5 38.5 q-114 0 -175.5 -85t-61.5 -243z" unicode="æ" horiz-adv-x="1460"/>
<glyph glyph-name="ccedilla" d="M831 227l33 -34q-87 -109 -181.5 -162.5t-201.5 -53.5q-175 0 -294 128.5t-119 320.5q0 98 35.5 186.5t103.5 161.5q76 84 169 124t212 40q120 0 188 -36.5t68 -100.5q0 -37 -21.5 -61.5t-52.5 -24.5q-35 0 -71 43q-11 14 -17 20q-43 47 -87.5 68.5t-94.5 21.5 q-114 0 -191.5 -97.5t-77.5 -244.5q0 -171 100.5 -287t246.5 -116q63 0 125.5 25.5t127.5 78.5zM203 -379l36 90q60 -37 120.5 -57.5t113.5 -20.5q57 0 84 22t27 69q0 42 -27.5 64t-81.5 22q-13 0 -29 -2l-32 -4v196h63v-115q11 2 23.5 3t37.5 1q88 0 137.5 -43.5 t49.5 -121.5q0 -84 -59.5 -131.5t-165.5 -47.5q-59 0 -131 18.5t-166 57.5z" unicode="ç" horiz-adv-x="909"/>
<glyph glyph-name="egrave" d="M258 643h340q51 0 63.5 11t12.5 44q0 79 -50 129t-128 50q-89 0 -153 -63t-85 -171zM827 244l31 -33q-90 -122 -186.5 -179t-212.5 -57q-164 0 -270.5 131t-106.5 332q0 208 127 354t301 146q146 0 244 -90.5t98 -216.5q0 -33 -14 -44.5t-64 -11.5h-82h-442q0 -1 -1 -6 q-3 -46 -3 -69q0 -174 84 -284t213 -110q68 0 138.5 34.5t145.5 103.5zM692 1053h-74l-301 182q-49 31 -66.5 52.5t-17.5 47.5q0 32 22.5 55t53.5 23q24 0 52 -16t55 -45z" unicode="è" horiz-adv-x="948"/>
<glyph glyph-name="eacute" d="M258 643h340q51 0 63.5 11t12.5 44q0 79 -50 129t-128 50q-89 0 -153 -63t-85 -171zM827 244l31 -33q-90 -122 -186.5 -179t-212.5 -57q-164 0 -270.5 131t-106.5 332q0 208 127 354t301 146q146 0 244 -90.5t98 -216.5q0 -33 -14 -44.5t-64 -11.5h-82h-442q0 -1 -1 -6 q-3 -46 -3 -69q0 -174 84 -284t213 -110q68 0 138.5 34.5t145.5 103.5zM340 1053l276 299q27 29 55 45t52 16q31 0 53.5 -23t22.5 -55q0 -26 -17.5 -47.5t-66.5 -52.5l-301 -182h-74z" unicode="é" horiz-adv-x="948"/>
<glyph glyph-name="ecircumflex" d="M258 643h340q51 0 63.5 11t12.5 44q0 79 -50 129t-128 50q-89 0 -153 -63t-85 -171zM827 244l31 -33q-90 -122 -186.5 -179t-212.5 -57q-164 0 -270.5 131t-106.5 332q0 208 127 354t301 146q146 0 244 -90.5t98 -216.5q0 -33 -14 -44.5t-64 -11.5h-82h-442q0 -1 -1 -6 q-3 -46 -3 -69q0 -174 84 -284t213 -110q68 0 138.5 34.5t145.5 103.5zM221 1053l227 348h134l229 -348h-74l-221 194l-221 -194h-74z" unicode="ê" horiz-adv-x="948"/>
<glyph glyph-name="edieresis" d="M258 643h340q51 0 63.5 11t12.5 44q0 79 -50 129t-128 50q-89 0 -153 -63t-85 -171zM827 244l31 -33q-90 -122 -186.5 -179t-212.5 -57q-164 0 -270.5 131t-106.5 332q0 208 127 354t301 146q146 0 244 -90.5t98 -216.5q0 -33 -14 -44.5t-64 -11.5h-82h-442q0 -1 -1 -6 q-3 -46 -3 -69q0 -174 84 -284t213 -110q68 0 138.5 34.5t145.5 103.5zM594 1217q0 44 34.5 78t80.5 34q45 0 77.5 -33t32.5 -79q0 -50 -31 -82.5t-79 -32.5q-49 0 -82 33t-33 82zM211 1217q0 45 33.5 78.5t78.5 33.5q47 0 80 -33t33 -79q0 -50 -32 -82.5t-81 -32.5 q-48 0 -80 32.5t-32 82.5z" unicode="ë" horiz-adv-x="948"/>
<glyph glyph-name="igrave" d="M60 0v51q90 2 114.5 18.5t24.5 90.5v41v461q0 75 -26 105.5t-95 51.5v25q66 20 124.5 45t110.5 55h49v-790q0 -66 21.5 -83.5t117.5 -19.5v-51q-75 3 -140.5 4.5t-118.5 1.5q-52 0 -97.5 -1.5t-84.5 -4.5zM455 1053h-74l-301 182q-49 31 -66.5 52.5t-17.5 47.5 q0 32 22.5 55t53.5 23q24 0 52 -16t55 -45z" unicode="ì" horiz-adv-x="569"/>
<glyph glyph-name="iacute" d="M60 0v51q90 2 114.5 18.5t24.5 90.5v41v461q0 75 -26 105.5t-95 51.5v25q66 20 124.5 45t110.5 55h49v-790q0 -66 21.5 -83.5t117.5 -19.5v-51q-75 3 -140.5 4.5t-118.5 1.5q-52 0 -97.5 -1.5t-84.5 -4.5zM103 1053l276 299q27 29 55 45t52 16q31 0 53.5 -23t22.5 -55 q0 -26 -17.5 -47.5t-66.5 -52.5l-301 -182h-74z" unicode="í" horiz-adv-x="569"/>
<glyph glyph-name="icircumflex" d="M60 0v51q90 2 114.5 18.5t24.5 90.5v41v461q0 75 -26 105.5t-95 51.5v25q66 20 124.5 45t110.5 55h49v-790q0 -66 21.5 -83.5t117.5 -19.5v-51q-75 3 -140.5 4.5t-118.5 1.5q-52 0 -97.5 -1.5t-84.5 -4.5zM-16 1053l227 348h134l229 -348h-74l-221 194l-221 -194h-74z " unicode="î" horiz-adv-x="569"/>
<glyph glyph-name="idieresis" d="M60 0v51q90 2 114.5 18.5t24.5 90.5v41v461q0 75 -26 105.5t-95 51.5v25q66 20 124.5 45t110.5 55h49v-790q0 -66 21.5 -83.5t117.5 -19.5v-51q-75 3 -140.5 4.5t-118.5 1.5q-52 0 -97.5 -1.5t-84.5 -4.5zM357 1217q0 44 34.5 78t80.5 34q45 0 77.5 -33t32.5 -79 q0 -50 -31 -82.5t-79 -32.5q-49 0 -82 33t-33 82zM-26 1217q0 45 33.5 78.5t78.5 33.5q47 0 80 -33t33 -79q0 -50 -32 -82.5t-81 -32.5q-48 0 -80 32.5t-32 82.5z" unicode="ï" horiz-adv-x="569"/>
<glyph glyph-name="eth" d="M764 881q-40 97 -87.5 185t-103.5 167l-354 -219l-33 55l346 217q-44 61 -99 117t-124 110l35 43q80 -50 150 -103t133 -110l293 183l32 -58l-278 -172q185 -192 279 -393.5t94 -404.5q0 -231 -137.5 -376t-352.5 -145q-197 0 -332 136t-135 331q0 205 136 340.5 t343 135.5q53 0 101.5 -10t93.5 -29zM551 866q-120 0 -197.5 -109t-77.5 -284q0 -195 84.5 -315.5t217.5 -120.5q127 0 200.5 112t73.5 310q0 182 -83.5 294.5t-217.5 112.5z" unicode="ð"/>
<glyph glyph-name="ntilde" d="M60 0v51q90 2 114.5 18.5t24.5 90.5v41v420q0 98 -25 128t-96 54v41q66 20 124.5 45t110.5 55h47v-158q126 80 210 115t149 35q126 0 179.5 -81t53.5 -284v-409q0 -79 21.5 -93.5t103.5 -17.5v-51q-29 1 -99 3.5t-108 2.5q-40 0 -115.5 -2.5t-103.5 -3.5v51q89 0 112 16 t23 105v383q0 156 -39 209t-139 53q-60 0 -121 -22.5t-125 -67.5v-573q0 -66 21 -83.5t118 -21.5v-49q-75 3 -140.5 4.5t-118.5 1.5q-52 0 -97.5 -1.5t-84.5 -4.5zM840 1370q-22 -113 -71.5 -171t-123.5 -58q-12 0 -24.5 1.5t-26.5 4.5l-107 27q-2 0 -9 2q-35 8 -44 8 q-42 0 -65 -20.5t-37 -69.5h-58q24 117 71.5 173t123.5 56q18 0 34 -2t31 -6l109 -27q21 -5 31.5 -6.5t19.5 -1.5q33 0 55 22.5t33 67.5h58z" unicode="ñ"/>
<glyph glyph-name="ograve" d="M276 483q0 -198 84.5 -322t217.5 -124q124 0 200 112.5t76 301.5q0 198 -83 316t-220 118q-119 0 -197 -112t-78 -290zM90 453q0 208 136.5 346.5t342.5 138.5t342 -132.5t136 -330.5q0 -207 -141.5 -352.5t-346.5 -145.5q-196 0 -332.5 138.5t-136.5 337.5zM762 1053 h-74l-301 182q-49 31 -66.5 52.5t-17.5 47.5q0 32 22.5 55t53.5 23q24 0 52 -16t55 -45z" unicode="ò"/>
<glyph glyph-name="oacute" d="M276 483q0 -198 84.5 -322t217.5 -124q124 0 200 112.5t76 301.5q0 198 -83 316t-220 118q-119 0 -197 -112t-78 -290zM90 453q0 208 136.5 346.5t342.5 138.5t342 -132.5t136 -330.5q0 -207 -141.5 -352.5t-346.5 -145.5q-196 0 -332.5 138.5t-136.5 337.5zM410 1053 l276 299q27 29 55 45t52 16q31 0 53.5 -23t22.5 -55q0 -26 -17.5 -47.5t-66.5 -52.5l-301 -182h-74z" unicode="ó"/>
<glyph glyph-name="ocircumflex" d="M276 483q0 -198 84.5 -322t217.5 -124q124 0 200 112.5t76 301.5q0 198 -83 316t-220 118q-119 0 -197 -112t-78 -290zM90 453q0 208 136.5 346.5t342.5 138.5t342 -132.5t136 -330.5q0 -207 -141.5 -352.5t-346.5 -145.5q-196 0 -332.5 138.5t-136.5 337.5zM291 1053 l227 348h134l229 -348h-74l-221 194l-221 -194h-74z" unicode="ô"/>
<glyph glyph-name="otilde" d="M276 483q0 -198 84.5 -322t217.5 -124q124 0 200 112.5t76 301.5q0 198 -83 316t-220 118q-119 0 -197 -112t-78 -290zM90 453q0 208 136.5 346.5t342.5 138.5t342 -132.5t136 -330.5q0 -207 -141.5 -352.5t-346.5 -145.5q-196 0 -332.5 138.5t-136.5 337.5zM869 1370 q-22 -113 -71.5 -171t-123.5 -58q-12 0 -24.5 1.5t-26.5 4.5l-107 27q-2 0 -9 2q-35 8 -44 8q-42 0 -65 -20.5t-37 -69.5h-58q24 117 71.5 173t123.5 56q18 0 34 -2t31 -6l109 -27q21 -5 31.5 -6.5t19.5 -1.5q33 0 55 22.5t33 67.5h58z" unicode="õ"/>
<glyph glyph-name="odieresis" d="M276 483q0 -198 84.5 -322t217.5 -124q124 0 200 112.5t76 301.5q0 198 -83 316t-220 118q-119 0 -197 -112t-78 -290zM90 453q0 208 136.5 346.5t342.5 138.5t342 -132.5t136 -330.5q0 -207 -141.5 -352.5t-346.5 -145.5q-196 0 -332.5 138.5t-136.5 337.5zM664 1217 q0 44 34.5 78t80.5 34q45 0 77.5 -33t32.5 -79q0 -50 -31 -82.5t-79 -32.5q-49 0 -82 33t-33 82zM281 1217q0 45 33.5 78.5t78.5 33.5q47 0 80 -33t33 -79q0 -50 -32 -82.5t-81 -32.5q-48 0 -80 32.5t-32 82.5z" unicode="ö"/>
<glyph glyph-name="divide" d="M854 365q47 0 81 -34t34 -81t-33.5 -81t-81.5 -34t-81.5 33.5t-33.5 81.5t34 81.5t81 33.5zM254 670h1198v-117h-1198v117zM854 1085q48 0 81.5 -33.5t33.5 -80.5q0 -48 -33.5 -81.5t-81.5 -33.5q-49 0 -82 33.5t-33 81.5q0 47 34 80.5t81 33.5z" unicode="÷" horiz-adv-x="1706"/>
<glyph glyph-name="oslash" d="M825 643l-475 -463q46 -72 101.5 -106.5t126.5 -34.5q124 0 200 112.5t76 301.5q0 45 -7 93t-22 97zM315 250l484 465q-42 84 -105 128t-143 44q-122 0 -198.5 -114t-76.5 -300q0 -60 10 -115t29 -108zM201 139q-56 77 -83.5 155t-27.5 163q0 206 137 344.5t342 138.5 q99 0 182 -31.5t154 -97.5l148 143l49 -49l-152 -143q50 -71 74.5 -143.5t24.5 -147.5q0 -204 -144.5 -349t-353.5 -145q-81 0 -152 27.5t-147 87.5l-156 -153l-47 51z" unicode="ø"/>
<glyph glyph-name="ugrave" d="M758 -25v168q-107 -81 -203 -123.5t-174 -42.5q-103 0 -154 66t-51 199v417q0 125 -26.5 157t-100.5 44v37l238 16h47v-546q0 -158 37.5 -219.5t128.5 -61.5q56 0 121.5 32.5t130.5 92.5v498q0 63 -31 90.5t-137 52.5v45l284 16h52v-739q0 -66 12.5 -81t50.5 -15h43h27 v-39zM708 1053h-74l-301 182q-49 31 -66.5 52.5t-17.5 47.5q0 32 22.5 55t53.5 23q24 0 52 -16t55 -45z" unicode="ù" horiz-adv-x="1118"/>
<glyph glyph-name="uacute" d="M758 -25v168q-107 -81 -203 -123.5t-174 -42.5q-103 0 -154 66t-51 199v417q0 125 -26.5 157t-100.5 44v37l238 16h47v-546q0 -158 37.5 -219.5t128.5 -61.5q56 0 121.5 32.5t130.5 92.5v498q0 63 -31 90.5t-137 52.5v45l284 16h52v-739q0 -66 12.5 -81t50.5 -15h43h27 v-39zM356 1053l276 299q27 29 55 45t52 16q31 0 53.5 -23t22.5 -55q0 -26 -17.5 -47.5t-66.5 -52.5l-301 -182h-74z" unicode="ú" horiz-adv-x="1118"/>
<glyph glyph-name="ucircumflex" d="M758 -25v168q-107 -81 -203 -123.5t-174 -42.5q-103 0 -154 66t-51 199v417q0 125 -26.5 157t-100.5 44v37l238 16h47v-546q0 -158 37.5 -219.5t128.5 -61.5q56 0 121.5 32.5t130.5 92.5v498q0 63 -31 90.5t-137 52.5v45l284 16h52v-739q0 -66 12.5 -81t50.5 -15h43h27 v-39zM237 1053l227 348h134l229 -348h-74l-221 194l-221 -194h-74z" unicode="û" horiz-adv-x="1118"/>
<glyph glyph-name="udieresis" d="M758 -25v168q-107 -81 -203 -123.5t-174 -42.5q-103 0 -154 66t-51 199v417q0 125 -26.5 157t-100.5 44v37l238 16h47v-546q0 -158 37.5 -219.5t128.5 -61.5q56 0 121.5 32.5t130.5 92.5v498q0 63 -31 90.5t-137 52.5v45l284 16h52v-739q0 -66 12.5 -81t50.5 -15h43h27 v-39zM610 1217q0 44 34.5 78t80.5 34q45 0 77.5 -33t32.5 -79q0 -50 -31 -82.5t-79 -32.5q-49 0 -82 33t-33 82zM227 1217q0 45 33.5 78.5t78.5 33.5q47 0 80 -33t33 -79q0 -50 -32 -82.5t-81 -32.5q-48 0 -80 32.5t-32 82.5z" unicode="ü" horiz-adv-x="1118"/>
<glyph glyph-name="yacute" d="M301 -283l135 328l-266 690q-15 40 -32.5 67.5t-35.5 39.5q-10 7 -31.5 13t-51.5 9v49q37 -2 63 -3t51 -1q52 0 152.5 2t148.5 2v-49q-4 0 -13 1t-11 1q-43 0 -63.5 -15t-20.5 -46q0 -11 4 -27t12 -35l188 -477l177 418q11 28 17.5 56t6.5 46q0 41 -23 59.5t-73 18.5h-17 v49q15 -2 33 -3t60 -1h80q75 0 109.5 1t62.5 3v-49q-59 0 -96.5 -30.5t-67.5 -104.5l-439 -1048q-34 -82 -68 -115t-81 -33q-43 0 -69.5 28.5t-26.5 73.5q0 46 29.5 74.5t74.5 28.5q11 0 28.5 -4t53.5 -17zM328 1053l276 299q27 29 55 45t52 16q31 0 53.5 -23t22.5 -55 q0 -26 -17.5 -47.5t-66.5 -52.5l-301 -182h-74z" unicode="ý" horiz-adv-x="1006"/>
<glyph glyph-name="thorn" d="M350 733v-545q53 -71 110 -106t120 -35q120 0 201 106t81 267q0 172 -87 279.5t-224 107.5q-49 0 -99.5 -18.5t-101.5 -55.5zM47 -412q94 2 117.5 18.5t23.5 94.5v35v1532q0 75 -26 105.5t-94 51.5v25q65 20 123.5 45t111.5 55h45v-753q94 74 173.5 109.5t152.5 35.5 q152 0 256 -123.5t104 -308.5q0 -92 -31 -177t-94 -161q-80 -98 -175.5 -145t-211.5 -47q-45 0 -87 9.5t-85 28.5v-327q0 -67 22.5 -85t119.5 -18l-1 -53q-90 3 -157.5 4.5t-104.5 1.5q-47 0 -92.5 -1.5t-89.5 -3.5v52z" unicode="þ"/>
<glyph glyph-name="dotlessi" d="M60 0v51q90 2 114.5 18.5t24.5 90.5v41v461q0 75 -26 105.5t-95 51.5v25q66 20 124.5 45t110.5 55h49v-790q0 -66 21.5 -83.5t117.5 -19.5v-51q-75 3 -140.5 4.5t-118.5 1.5q-52 0 -97.5 -1.5t-84.5 -4.5z" unicode="ı" horiz-adv-x="569"/>
<glyph glyph-name="circumflex" d="M217 1053l227 348h134l229 -348h-74l-221 194l-221 -194h-74z" unicode="ˆ" horiz-adv-x="1024"/>
<glyph glyph-name="tilde" d="M795 1370q-22 -113 -71.5 -171t-123.5 -58q-12 0 -24.5 1.5t-26.5 4.5l-107 27q-2 0 -9 2q-35 8 -44 8q-42 0 -65 -20.5t-37 -69.5h-58q24 117 71.5 173t123.5 56q18 0 34 -2t31 -6l109 -27q21 -5 31.5 -6.5t19.5 -1.5q33 0 55 22.5t33 67.5h58z" unicode="˜" horiz-adv-x="1024"/>
</font>
</defs>
</svg>
